  0
SECTION
  2
HEADER
  9
$ACADVER
  1
AC1014
  9
$HANDSEED
  5
FFFF
  9
$INSUNITS
 70
     4
  9
$MEASUREMENT
 70
     1
  0
ENDSEC
  0
SECTION
  2
TABLES
  0
TABLE
  2
VPORT
  5
8
330
0
100
AcDbSymbolTable
 70
     4
  0
VPORT
  5
2E
330
8
100
AcDbSymbolTableRecord
100
AcDbViewportTableRecord
  2
*ACTIVE
 70
     0
 10
0.0
 20
0.0
 11
1.0
 21
1.0
 12
210.0
 22
148.5
 13
0.0
 23
0.0
 14
10.0
 24
10.0
 15
10.0
 25
10.0
 16
0.0
 26
0.0
 36
1.0
 17
0.0
 27
0.0
 37
0.0
 40
341.0
 41
1.24
 42
50.0
 43
0.0
 44
0.0
 50
0.0
 51
0.0
 71
     0
 72
   100
 73
     1
 74
     3
 75
     0
 76
     0
 77
     0
 78
     0
  0
ENDTAB
  0
TABLE
  2
LTYPE
  5
5
330
0
100
AcDbSymbolTable
 70
     1
  0
LTYPE
  5
14
330
5
100
AcDbSymbolTableRecord
100
AcDbLinetypeTableRecord
  2
BYBLOCK
 70
     0
  3

 72
    65
 73
     0
 40
0.0
  0
LTYPE
  5
15
330
5
100
AcDbSymbolTableRecord
100
AcDbLinetypeTableRecord
  2
BYLAYER
 70
     0
  3

 72
    65
 73
     0
 40
0.0
  0
LTYPE
  5
16
330
5
100
AcDbSymbolTableRecord
100
AcDbLinetypeTableRecord
  2
CONTINUOUS
 70
     0
  3
Solid line
 72
    65
 73
     0
 40
0.0
  0
ENDTAB
  0
TABLE
  2
LAYER
  5
2
100
AcDbSymbolTable
 70
1
  0
LAYER
  5
50
100
AcDbSymbolTableRecord
100
AcDbLayerTableRecord
  2
0
 70
0
  6
CONTINUOUS
  0
ENDTAB
  0
TABLE
  2
STYLE
  5
3
330
0
100
AcDbSymbolTable
 70
     1
  0
STYLE
  5
11
330
3
100
AcDbSymbolTableRecord
100
AcDbTextStyleTableRecord
  2
STANDARD
 70
     0
 40
0.0
 41
1.0
 50
0.0
 71
     0
 42
2.5
  3
txt
  4

  0
ENDTAB
  0
TABLE
  2
VIEW
  5
6
330
0
100
AcDbSymbolTable
 70
     0
  0
ENDTAB
  0
TABLE
  2
UCS
  5
7
330
0
100
AcDbSymbolTable
 70
     0
  0
ENDTAB
  0
TABLE
  2
APPID
  5
9
330
0
100
AcDbSymbolTable
 70
     2
  0
APPID
  5
12
330
9
100
AcDbSymbolTableRecord
100
AcDbRegAppTableRecord
  2
ACAD
 70
     0
  0
ENDTAB
  0
TABLE
  2
DIMSTYLE
  5
A
330
0
100
AcDbSymbolTable
 70
     1
  0
DIMSTYLE
105
27
330
A
100
AcDbSymbolTableRecord
100
AcDbDimStyleTableRecord
  2
ISO-25
 70
     0
  3

  4

  5

  6

  7

 40
1.0
 41
2.5
 42
0.625
 43
3.75
 44
1.25
 45
0.0
 46
0.0
 47
0.0
 48
0.0
140
2.5
141
2.5
142
0.0
143
0.03937007874016
144
1.0
145
0.0
146
1.0
147
0.625
 71
     0
 72
     0
 73
     0
 74
     0
 75
     0
 76
     0
 77
     1
 78
     8
170
     0
171
     3
172
     1
173
     0
174
     0
175
     0
176
     0
177
     0
178
     0
270
     2
271
     2
272
     2
273
     2
274
     3
340
11
275
     0
280
     0
281
     0
282
     0
283
     0
284
     8
285
     0
286
     0
287
     3
288
     0
  0
ENDTAB
  0
TABLE
  2
BLOCK_RECORD
  5
1
330
0
100
AcDbSymbolTable
 70
     1
  0
BLOCK_RECORD
  5
1F
330
1
100
AcDbSymbolTableRecord
100
AcDbBlockTableRecord
  2
*MODEL_SPACE
  0
BLOCK_RECORD
  5
1B
330
1
100
AcDbSymbolTableRecord
100
AcDbBlockTableRecord
  2
*PAPER_SPACE
  0
ENDTAB
  0
ENDSEC
  0
SECTION
  2
BLOCKS
  0
BLOCK
  5
20
330
1F
100
AcDbEntity
  8
0
100
AcDbBlockBegin
  2
*MODEL_SPACE
 70
     0
 10
0.0
 20
0.0
 30
0.0
  3
*MODEL_SPACE
  1

  0
ENDBLK
  5
21
330
1F
100
AcDbEntity
  8
0
100
AcDbBlockEnd
  0
BLOCK
  5
1C
330
1B
100
AcDbEntity
 67
     1
  8
0
100
AcDbBlockBegin
  2
*PAPER_SPACE
  1

  0
ENDBLK
  5
1D
330
1B
100
AcDbEntity
 67
     1
  8
0
100
AcDbBlockEnd
  0
ENDSEC
  0
SECTION
  2
ENTITIES
  0
SPLINE
  5
100
100
AcDbEntity
  8
0
 62
7
100
AcDbSpline
 70
8
 71
3
 72
8
 73
4
 74
0
 40
0
 40
0
 40
0
 40
0
 40
1
 40
1
 40
1
 40
1
 10
215.700583
 20
111.984057
 30
0.0
 10
215.700583
 20
111.431760
 30
0.0
 10
215.252880
 20
110.984023
 30
0.0
 10
214.700583
 20
110.983981
 30
0.0
  0
LWPOLYLINE
  5
101
100
AcDbEntity
  8
0
 62
7
100
AcDbPolyline
 90
2
 70
0
 10
215.700583
 20
113.931327
 30
0.0
 10
215.700583
 20
111.984057
 30
0.0
  0
SPLINE
  5
102
100
AcDbEntity
  8
0
 62
7
100
AcDbSpline
 70
8
 71
3
 72
8
 73
4
 74
0
 40
0
 40
0
 40
0
 40
0
 40
1
 40
1
 40
1
 40
1
 10
176.938453
 20
110.981131
 30
0.0
 10
176.386156
 20
110.981090
 30
0.0
 10
175.938453
 20
110.533353
 30
0.0
 10
175.938453
 20
109.981056
 30
0.0
  0
LWPOLYLINE
  5
103
100
AcDbEntity
  8
0
 62
7
100
AcDbPolyline
 90
2
 70
0
 10
214.700583
 20
110.983981
 30
0.0
 10
176.938453
 20
110.981131
 30
0.0
  0
SPLINE
  5
104
100
AcDbEntity
  8
0
 62
7
100
AcDbSpline
 70
8
 71
3
 72
8
 73
4
 74
0
 40
0
 40
0
 40
0
 40
0
 40
1
 40
1
 40
1
 40
1
 10
175.938453
 20
75.648976
 30
0.0
 10
175.938453
 20
75.383759
 30
0.0
 10
175.833096
 20
75.129405
 30
0.0
 10
175.645560
 20
74.941869
 30
0.0
  0
SPLINE
  5
105
100
AcDbEntity
  8
0
 62
7
100
AcDbSpline
 70
8
 71
3
 72
8
 73
4
 74
0
 40
0
 40
0
 40
0
 40
0
 40
1
 40
1
 40
1
 40
1
 10
175.645560
 20
74.941869
 30
0.0
 10
175.458023
 20
74.754333
 30
0.0
 10
175.203669
 20
74.648976
 30
0.0
 10
174.938453
 20
74.648976
 30
0.0
  0
LWPOLYLINE
  5
106
100
AcDbEntity
  8
0
 62
7
100
AcDbPolyline
 90
2
 70
0
 10
175.938453
 20
109.981056
 30
0.0
 10
175.938453
 20
75.648976
 30
0.0
  0
SPLINE
  5
107
100
AcDbEntity
  8
0
 62
7
100
AcDbSpline
 70
8
 71
3
 72
8
 73
4
 74
0
 40
0
 40
0
 40
0
 40
0
 40
1
 40
1
 40
1
 40
1
 10
156.453113
 20
74.648976
 30
0.0
 10
155.900832
 20
74.648981
 30
0.0
 10
155.453123
 20
75.096695
 30
0.0
 10
155.453123
 20
75.648976
 30
0.0
  0
LWPOLYLINE
  5
108
100
AcDbEntity
  8
0
 62
7
100
AcDbPolyline
 90
2
 70
0
 10
174.938453
 20
74.648976
 30
0.0
 10
156.453113
 20
74.648976
 30
0.0
  0
SPLINE
  5
109
100
AcDbEntity
  8
0
 62
7
100
AcDbSpline
 70
8
 71
3
 72
8
 73
4
 74
0
 40
0
 40
0
 40
0
 40
0
 40
1
 40
1
 40
1
 40
1
 10
155.453123
 20
109.979906
 30
0.0
 10
155.453123
 20
110.245117
 30
0.0
 10
155.347764
 20
110.499465
 30
0.0
 10
155.160226
 20
110.686992
 30
0.0
  0
SPLINE
  5
10a
100
AcDbEntity
  8
0
 62
7
100
AcDbSpline
 70
8
 71
3
 72
8
 73
4
 74
0
 40
0
 40
0
 40
0
 40
0
 40
1
 40
1
 40
1
 40
1
 10
155.160226
 20
110.686992
 30
0.0
 10
154.972688
 20
110.874519
 30
0.0
 10
154.718334
 20
110.979863
 30
0.0
 10
154.453123
 20
110.979847
 30
0.0
  0
LWPOLYLINE
  5
10b
100
AcDbEntity
  8
0
 62
7
100
AcDbPolyline
 90
2
 70
0
 10
155.453123
 20
75.648976
 30
0.0
 10
155.453123
 20
109.979906
 30
0.0
  0
SPLINE
  5
10c
100
AcDbEntity
  8
0
 62
7
100
AcDbSpline
 70
8
 71
3
 72
8
 73
4
 74
0
 40
0
 40
0
 40
0
 40
0
 40
1
 40
1
 40
1
 40
1
 10
148.794333
 20
110.979515
 30
0.0
 10
148.529209
 20
110.979500
 30
0.0
 10
148.274965
 20
110.874096
 30
0.0
 10
148.087600
 20
110.686520
 30
0.0
  0
SPLINE
  5
10d
100
AcDbEntity
  8
0
 62
7
100
AcDbSpline
 70
8
 71
3
 72
8
 73
4
 74
0
 40
0
 40
0
 40
0
 40
0
 40
1
 40
1
 40
1
 40
1
 10
148.087600
 20
110.686520
 30
0.0
 10
147.900235
 20
110.498943
 30
0.0
 10
147.795118
 20
110.244580
 30
0.0
 10
147.795403
 20
109.979457
 30
0.0
  0
LWPOLYLINE
  5
10e
100
AcDbEntity
  8
0
 62
7
100
AcDbPolyline
 90
2
 70
0
 10
154.453123
 20
110.979847
 30
0.0
 10
148.794333
 20
110.979515
 30
0.0
  0
SPLINE
  5
10f
100
AcDbEntity
  8
0
 62
7
100
AcDbSpline
 70
8
 71
3
 72
8
 73
4
 74
0
 40
0
 40
0
 40
0
 40
0
 40
1
 40
1
 40
1
 40
1
 10
147.900493
 20
12.059759
 30
0.0
 10
147.901084
 20
11.507236
 30
0.0
 10
148.349050
 20
11.059583
 30
0.0
 10
148.901573
 20
11.059379
 30
0.0
  0
LWPOLYLINE
  5
110
100
AcDbEntity
  8
0
 62
7
100
AcDbPolyline
 90
2
 70
0
 10
147.795403
 20
109.979457
 30
0.0
 10
147.900493
 20
12.059759
 30
0.0
  0
SPLINE
  5
111
100
AcDbEntity
  8
0
 62
7
100
AcDbSpline
 70
8
 71
3
 72
8
 73
4
 74
0
 40
0
 40
0
 40
0
 40
0
 40
1
 40
1
 40
1
 40
1
 10
162.805863
 20
11.054379
 30
0.0
 10
163.425029
 20
11.054146
 30
0.0
 10
163.997410
 20
10.724842
 30
0.0
 10
164.308823
 20
10.189689
 30
0.0
  0
LWPOLYLINE
  5
112
100
AcDbEntity
  8
0
 62
7
100
AcDbPolyline
 90
2
 70
0
 10
148.901573
 20
11.059379
 30
0.0
 10
162.805863
 20
11.054379
 30
0.0
  0
SPLINE
  5
113
100
AcDbEntity
  8
0
 62
7
100
AcDbSpline
 70
8
 71
3
 72
8
 73
4
 74
0
 40
0
 40
0
 40
0
 40
0
 40
1
 40
1
 40
1
 40
1
 10
166.105643
 20
7.101909
 30
0.0
 10
166.383423
 20
6.624559
 30
0.0
 10
166.995693
 20
6.462559
 30
0.0
 10
167.473013
 20
6.740379
 30
0.0
  0
SPLINE
  5
114
100
AcDbEntity
  8
0
 62
7
100
AcDbSpline
 70
8
 71
3
 72
8
 73
4
 74
0
 40
0
 40
0
 40
0
 40
0
 40
1
 40
1
 40
1
 40
1
 10
167.473013
 20
6.740379
 30
0.0
 10
169.297833
 20
7.802539
 30
0.0
 10
173.582063
 20
10.300269
 30
0.0
 10
176.100573
 20
11.801599
 30
0.0
  0
SPLINE
  5
115
100
AcDbEntity
  8
0
 62
7
100
AcDbSpline
 70
8
 71
3
 72
8
 73
4
 74
0
 40
0
 40
0
 40
0
 40
0
 40
1
 40
1
 40
1
 40
1
 10
176.100573
 20
11.801599
 30
0.0
 10
176.574923
 20
12.084369
 30
0.0
 10
177.341053
 20
12.547889
 30
0.0
 10
177.818763
 20
12.825019
 30
0.0
  0
SPLINE
  5
116
100
AcDbEntity
  8
0
 62
7
100
AcDbSpline
 70
8
 71
3
 72
8
 73
4
 74
0
 40
0
 40
0
 40
0
 40
0
 40
1
 40
1
 40
1
 40
1
 10
177.818763
 20
12.825019
 30
0.0
 10
182.635843
 20
15.619549
 30
0.0
 10
187.836703
 20
17.704239
 30
0.0
 10
192.769613
 20
19.104489
 30
0.0
  0
SPLINE
  5
117
100
AcDbEntity
  8
0
 62
7
100
AcDbSpline
 70
8
 71
3
 72
8
 73
4
 74
0
 40
0
 40
0
 40
0
 40
0
 40
1
 40
1
 40
1
 40
1
 10
192.769613
 20
19.104489
 30
0.0
 10
193.300893
 20
19.255299
 30
0.0
 10
194.165893
 20
19.486979
 30
0.0
 10
194.701233
 20
19.622689
 30
0.0
  0
SPLINE
  5
118
100
AcDbEntity
  8
0
 62
7
100
AcDbSpline
 70
8
 71
3
 72
8
 73
4
 74
0
 40
0
 40
0
 40
0
 40
0
 40
1
 40
1
 40
1
 40
1
 10
194.701233
 20
19.622689
 30
0.0
 10
200.083053
 20
20.987054
 30
0.0
 10
205.589363
 20
21.736432
 30
0.0
 10
210.739543
 20
21.839042
 30
0.0
  0
SPLINE
  5
119
100
AcDbEntity
  8
0
 62
7
100
AcDbSpline
 70
8
 71
3
 72
8
 73
4
 74
0
 40
0
 40
0
 40
0
 40
0
 40
1
 40
1
 40
1
 40
1
 10
210.739543
 20
21.839042
 30
0.0
 10
211.291713
 20
21.850042
 30
0.0
 10
212.187163
 20
21.853402
 30
0.0
 10
212.739443
 20
21.855422
 30
0.0
  0
SPLINE
  5
11a
100
AcDbEntity
  8
0
 62
7
100
AcDbSpline
 70
8
 71
3
 72
8
 73
4
 74
0
 40
0
 40
0
 40
0
 40
0
 40
1
 40
1
 40
1
 40
1
 10
212.739443
 20
21.855422
 30
0.0
 10
215.953103
 20
21.867162
 30
0.0
 10
220.696833
 20
21.860622
 30
0.0
 10
222.743393
 20
21.856822
 30
0.0
  0
SPLINE
  5
11b
100
AcDbEntity
  8
0
 62
7
100
AcDbSpline
 70
8
 71
3
 72
8
 73
4
 74
0
 40
0
 40
0
 40
0
 40
0
 40
1
 40
1
 40
1
 40
1
 10
222.743393
 20
21.856822
 30
0.0
 10
223.295663
 20
21.855822
 30
0.0
 10
223.743233
 20
22.302524
 30
0.0
 10
223.743073
 20
22.854809
 30
0.0
  0
LWPOLYLINE
  5
11c
100
AcDbEntity
  8
0
 62
7
100
AcDbPolyline
 90
2
 70
0
 10
164.308823
 20
10.189689
 30
0.0
 10
166.105643
 20
7.101909
 30
0.0
  0
SPLINE
  5
11d
100
AcDbEntity
  8
0
 62
7
100
AcDbSpline
 70
8
 71
3
 72
8
 73
4
 74
0
 40
0
 40
0
 40
0
 40
0
 40
1
 40
1
 40
1
 40
1
 10
223.740073
 20
34.604809
 30
0.0
 10
223.739996
 20
34.869999
 30
0.0
 10
223.845288
 20
35.124353
 30
0.0
 10
224.032778
 20
35.311898
 30
0.0
  0
SPLINE
  5
11e
100
AcDbEntity
  8
0
 62
7
100
AcDbSpline
 70
8
 71
3
 72
8
 73
4
 74
0
 40
0
 40
0
 40
0
 40
0
 40
1
 40
1
 40
1
 40
1
 10
224.032778
 20
35.311898
 30
0.0
 10
224.220269
 20
35.499443
 30
0.0
 10
224.474593
 20
35.604809
 30
0.0
 10
224.739783
 20
35.604809
 30
0.0
  0
LWPOLYLINE
  5
11f
100
AcDbEntity
  8
0
 62
7
100
AcDbPolyline
 90
2
 70
0
 10
223.743073
 20
22.854809
 30
0.0
 10
223.740073
 20
34.604809
 30
0.0
  0
SPLINE
  5
120
100
AcDbEntity
  8
0
 62
7
100
AcDbSpline
 70
8
 71
3
 72
8
 73
4
 74
0
 40
0
 40
0
 40
0
 40
0
 40
1
 40
1
 40
1
 40
1
 10
237.171423
 20
35.604809
 30
0.0
 10
237.837884
 20
35.604809
 30
0.0
 10
238.504142
 20
35.581495
 30
0.0
 10
239.168973
 20
35.534909
 30
0.0
  0
LWPOLYLINE
  5
121
100
AcDbEntity
  8
0
 62
7
100
AcDbPolyline
 90
2
 70
0
 10
224.739783
 20
35.604809
 30
0.0
 10
237.171423
 20
35.604809
 30
0.0
  0
SPLINE
  5
122
100
AcDbEntity
  8
0
 62
7
100
AcDbSpline
 70
8
 71
3
 72
8
 73
4
 74
0
 40
0
 40
0
 40
0
 40
0
 40
1
 40
1
 40
1
 40
1
 10
250.552773
 20
34.737213
 30
0.0
 10
250.807723
 20
34.719348
 30
0.0
 10
251.043198
 20
34.594398
 30
0.0
 10
251.200914
 20
34.393290
 30
0.0
  0
SPLINE
  5
123
100
AcDbEntity
  8
0
 62
7
100
AcDbSpline
 70
8
 71
3
 72
8
 73
4
 74
0
 40
0
 40
0
 40
0
 40
0
 40
1
 40
1
 40
1
 40
1
 10
251.200914
 20
34.393290
 30
0.0
 10
251.358630
 20
34.192182
 30
0.0
 10
251.423847
 20
33.933710
 30
0.0
 10
251.380423
 20
33.681851
 30
0.0
  0
LWPOLYLINE
  5
124
100
AcDbEntity
  8
0
 62
7
100
AcDbPolyline
 90
2
 70
0
 10
239.168973
 20
35.534909
 30
0.0
 10
250.552773
 20
34.737213
 30
0.0
  0
SPLINE
  5
125
100
AcDbEntity
  8
0
 62
7
100
AcDbSpline
 70
8
 71
3
 72
8
 73
4
 74
0
 40
0
 40
0
 40
0
 40
0
 40
1
 40
1
 40
1
 40
1
 10
251.036643
 20
31.687931
 30
0.0
 10
250.942707
 20
31.143097
 30
0.0
 10
251.307084
 20
30.624897
 30
0.0
 10
251.851573
 20
30.528979
 30
0.0
  0
LWPOLYLINE
  5
126
100
AcDbEntity
  8
0
 62
7
100
AcDbPolyline
 90
2
 70
0
 10
251.380423
 20
33.681851
 30
0.0
 10
251.036643
 20
31.687931
 30
0.0
  0
SPLINE
  5
127
100
AcDbEntity
  8
0
 62
7
100
AcDbSpline
 70
8
 71
3
 72
8
 73
4
 74
0
 40
0
 40
0
 40
0
 40
0
 40
1
 40
1
 40
1
 40
1
 10
273.463933
 20
26.721663
 30
0.0
 10
274.007844
 20
26.625847
 30
0.0
 10
274.526447
 20
26.989094
 30
0.0
 10
274.622273
 20
27.533004
 30
0.0
  0
LWPOLYLINE
  5
128
100
AcDbEntity
  8
0
 62
7
100
AcDbPolyline
 90
2
 70
0
 10
251.851573
 20
30.528979
 30
0.0
 10
273.463933
 20
26.721663
 30
0.0
  0
SPLINE
  5
129
100
AcDbEntity
  8
0
 62
7
100
AcDbSpline
 70
8
 71
3
 72
8
 73
4
 74
0
 40
0
 40
0
 40
0
 40
0
 40
1
 40
1
 40
1
 40
1
 10
275.318233
 20
31.483268
 30
0.0
 10
275.418597
 20
32.052939
 30
0.0
 10
275.913299
 20
32.468447
 30
0.0
 10
276.491743
 20
32.468919
 30
0.0
  0
LWPOLYLINE
  5
12a
100
AcDbEntity
  8
0
 62
7
100
AcDbPolyline
 90
2
 70
0
 10
274.622273
 20
27.533004
 30
0.0
 10
275.318233
 20
31.483268
 30
0.0
  0
SPLINE
  5
12b
100
AcDbEntity
  8
0
 62
7
100
AcDbSpline
 70
8
 71
3
 72
8
 73
4
 74
0
 40
0
 40
0
 40
0
 40
0
 40
1
 40
1
 40
1
 40
1
 10
281.827673
 20
32.473319
 30
0.0
 10
282.380090
 20
32.473770
 30
0.0
 10
282.827673
 20
32.921720
 30
0.0
 10
282.827673
 20
33.474137
 30
0.0
  0
LWPOLYLINE
  5
12c
100
AcDbEntity
  8
0
 62
7
100
AcDbPolyline
 90
2
 70
0
 10
276.491743
 20
32.468919
 30
0.0
 10
281.827673
 20
32.473319
 30
0.0
  0
SPLINE
  5
12d
100
AcDbEntity
  8
0
 62
7
100
AcDbSpline
 70
8
 71
3
 72
8
 73
4
 74
0
 40
0
 40
0
 40
0
 40
0
 40
1
 40
1
 40
1
 40
1
 10
282.827673
 20
72.891967
 30
0.0
 10
282.827672
 20
73.557368
 30
0.0
 10
282.885641
 20
74.221505
 30
0.0
 10
283.000923
 20
74.876844
 30
0.0
  0
LWPOLYLINE
  5
12e
100
AcDbEntity
  8
0
 62
7
100
AcDbPolyline
 90
2
 70
0
 10
282.827673
 20
33.474137
 30
0.0
 10
282.827673
 20
72.891967
 30
0.0
  0
SPLINE
  5
12f
100
AcDbEntity
  8
0
 62
7
100
AcDbSpline
 70
8
 71
3
 72
8
 73
4
 74
0
 40
0
 40
0
 40
0
 40
0
 40
1
 40
1
 40
1
 40
1
 10
285.082153
 20
86.707870
 30
0.0
 10
285.177845
 20
87.251842
 30
0.0
 10
284.814529
 20
87.770421
 30
0.0
 10
284.270583
 20
87.866263
 30
0.0
  0
LWPOLYLINE
  5
130
100
AcDbEntity
  8
0
 62
7
100
AcDbPolyline
 90
2
 70
0
 10
283.000923
 20
74.876844
 30
0.0
 10
285.082153
 20
86.707870
 30
0.0
  0
SPLINE
  5
131
100
AcDbEntity
  8
0
 62
7
100
AcDbSpline
 70
8
 71
3
 72
8
 73
4
 74
0
 40
0
 40
0
 40
0
 40
0
 40
1
 40
1
 40
1
 40
1
 10
283.812503
 20
87.946973
 30
0.0
 10
283.242944
 20
88.047323
 30
0.0
 10
282.827673
 20
88.542157
 30
0.0
 10
282.827673
 20
89.120489
 30
0.0
  0
LWPOLYLINE
  5
132
100
AcDbEntity
  8
0
 62
7
100
AcDbPolyline
 90
2
 70
0
 10
284.270583
 20
87.866263
 30
0.0
 10
283.812503
 20
87.946973
 30
0.0
  0
SPLINE
  5
133
100
AcDbEntity
  8
0
 62
7
100
AcDbSpline
 70
8
 71
3
 72
8
 73
4
 74
0
 40
0
 40
0
 40
0
 40
0
 40
1
 40
1
 40
1
 40
1
 10
282.827673
 20
109.880249
 30
0.0
 10
282.827673
 20
110.432549
 30
0.0
 10
282.379973
 20
110.880291
 30
0.0
 10
281.827673
 20
110.880342
 30
0.0
  0
LWPOLYLINE
  5
134
100
AcDbEntity
  8
0
 62
7
100
AcDbPolyline
 90
2
 70
0
 10
282.827673
 20
89.120489
 30
0.0
 10
282.827673
 20
109.880249
 30
0.0
  0
SPLINE
  5
135
100
AcDbEntity
  8
0
 62
7
100
AcDbSpline
 70
8
 71
3
 72
8
 73
4
 74
0
 40
0
 40
0
 40
0
 40
0
 40
1
 40
1
 40
1
 40
1
 10
240.827673
 20
110.884152
 30
0.0
 10
240.271373
 20
110.884204
 30
0.0
 10
239.816576
 20
111.327807
 30
0.0
 10
239.802663
 20
111.883932
 30
0.0
  0
LWPOLYLINE
  5
136
100
AcDbEntity
  8
0
 62
7
100
AcDbPolyline
 90
2
 70
0
 10
281.827673
 20
110.880342
 30
0.0
 10
240.827673
 20
110.884152
 30
0.0
  0
SPLINE
  5
137
100
AcDbEntity
  8
0
 62
7
100
AcDbSpline
 70
8
 71
3
 72
8
 73
4
 74
0
 40
0
 40
0
 40
0
 40
0
 40
1
 40
1
 40
1
 40
1
 10
239.751463
 20
113.931218
 30
0.0
 10
239.737550
 20
114.487333
 30
0.0
 10
239.282742
 20
114.930917
 30
0.0
 10
238.726453
 20
114.930932
 30
0.0
  0
LWPOLYLINE
  5
138
100
AcDbEntity
  8
0
 62
7
100
AcDbPolyline
 90
2
 70
0
 10
239.802663
 20
111.883932
 30
0.0
 10
239.751463
 20
113.931218
 30
0.0
  0
SPLINE
  5
139
100
AcDbEntity
  8
0
 62
7
100
AcDbSpline
 70
8
 71
3
 72
8
 73
4
 74
0
 40
0
 40
0
 40
0
 40
0
 40
1
 40
1
 40
1
 40
1
 10
216.701023
 20
114.931537
 30
0.0
 10
216.435809
 20
114.931545
 30
0.0
 10
216.181455
 20
114.826194
 30
0.0
 10
215.993918
 20
114.638662
 30
0.0
  0
SPLINE
  5
13a
100
AcDbEntity
  8
0
 62
7
100
AcDbSpline
 70
8
 71
3
 72
8
 73
4
 74
0
 40
0
 40
0
 40
0
 40
0
 40
1
 40
1
 40
1
 40
1
 10
215.993918
 20
114.638662
 30
0.0
 10
215.806381
 20
114.451130
 30
0.0
 10
215.701023
 20
114.196779
 30
0.0
 10
215.701023
 20
113.931565
 30
0.0
  0
LWPOLYLINE
  5
13b
100
AcDbEntity
  8
0
 62
7
100
AcDbPolyline
 90
2
 70
0
 10
238.726453
 20
114.930932
 30
0.0
 10
216.701023
 20
114.931537
 30
0.0
  0
SPLINE
  5
13c
100
AcDbEntity
  8
0
 62
7
100
AcDbSpline
 70
8
 71
3
 72
8
 73
4
 74
0
 40
0
 40
0
 40
0
 40
0
 40
1
 40
1
 40
1
 40
1
 10
250.160623
 20
41.016989
 30
0.0
 10
249.578563
 20
41.016989
 30
0.0
 10
249.109523
 20
40.547949
 30
0.0
 10
249.109523
 20
39.965889
 30
0.0
  0
SPLINE
  5
13d
100
AcDbEntity
  8
0
 62
7
100
AcDbSpline
 70
8
 71
3
 72
8
 73
4
 74
0
 40
0
 40
0
 40
0
 40
0
 40
1
 40
1
 40
1
 40
1
 10
249.109523
 20
39.965889
 30
0.0
 10
249.109523
 20
39.383839
 30
0.0
 10
249.582093
 20
38.914269
 30
0.0
 10
250.160623
 20
38.914269
 30
0.0
  0
SPLINE
  5
13e
100
AcDbEntity
  8
0
 62
7
100
AcDbSpline
 70
8
 71
3
 72
8
 73
4
 74
0
 40
0
 40
0
 40
0
 40
0
 40
1
 40
1
 40
1
 40
1
 10
250.160623
 20
38.914269
 30
0.0
 10
250.742673
 20
38.914269
 30
0.0
 10
251.211723
 20
39.383839
 30
0.0
 10
251.211723
 20
39.965889
 30
0.0
  0
SPLINE
  5
13f
100
AcDbEntity
  8
0
 62
7
100
AcDbSpline
 70
8
 71
3
 72
8
 73
4
 74
0
 40
0
 40
0
 40
0
 40
0
 40
1
 40
1
 40
1
 40
1
 10
251.211723
 20
39.965889
 30
0.0
 10
251.211723
 20
40.547949
 30
0.0
 10
250.742673
 20
41.016989
 30
0.0
 10
250.160623
 20
41.016989
 30
0.0
  0
LWPOLYLINE
  5
140
100
AcDbEntity
  8
0
 62
7
100
AcDbPolyline
 90
2
 70
0
 10
215.701023
 20
113.931565
 30
0.0
 10
215.700583
 20
113.931327
 30
0.0
  0
SPLINE
  5
141
100
AcDbEntity
  8
0
 62
7
100
AcDbSpline
 70
8
 71
3
 72
8
 73
4
 74
0
 40
0
 40
0
 40
0
 40
0
 40
1
 40
1
 40
1
 40
1
 10
238.663643
 20
41.854659
 30
0.0
 10
238.081583
 20
41.854659
 30
0.0
 10
237.612553
 20
41.385619
 30
0.0
 10
237.612553
 20
40.803559
 30
0.0
  0
SPLINE
  5
142
100
AcDbEntity
  8
0
 62
7
100
AcDbSpline
 70
8
 71
3
 72
8
 73
4
 74
0
 40
0
 40
0
 40
0
 40
0
 40
1
 40
1
 40
1
 40
1
 10
237.612553
 20
40.803559
 30
0.0
 10
237.612553
 20
40.221509
 30
0.0
 10
238.085113
 20
39.751949
 30
0.0
 10
238.663643
 20
39.751949
 30
0.0
  0
SPLINE
  5
143
100
AcDbEntity
  8
0
 62
7
100
AcDbSpline
 70
8
 71
3
 72
8
 73
4
 74
0
 40
0
 40
0
 40
0
 40
0
 40
1
 40
1
 40
1
 40
1
 10
238.663643
 20
39.751949
 30
0.0
 10
239.245693
 20
39.751949
 30
0.0
 10
239.714743
 20
40.221509
 30
0.0
 10
239.714743
 20
40.803559
 30
0.0
  0
SPLINE
  5
144
100
AcDbEntity
  8
0
 62
7
100
AcDbSpline
 70
8
 71
3
 72
8
 73
4
 74
0
 40
0
 40
0
 40
0
 40
0
 40
1
 40
1
 40
1
 40
1
 10
239.714743
 20
40.803559
 30
0.0
 10
239.714743
 20
41.385619
 30
0.0
 10
239.245693
 20
41.854659
 30
0.0
 10
238.663643
 20
41.854659
 30
0.0
  0
LWPOLYLINE
  5
145
100
AcDbEntity
  8
0
 62
7
100
AcDbPolyline
 90
1
 70
1
 10
250.160623
 20
41.016989
 30
0.0
  0
SPLINE
  5
146
100
AcDbEntity
  8
0
 62
7
100
AcDbSpline
 70
8
 71
3
 72
8
 73
4
 74
0
 40
0
 40
0
 40
0
 40
0
 40
1
 40
1
 40
1
 40
1
 10
235.902063
 20
75.435559
 30
0.0
 10
235.320003
 20
75.435559
 30
0.0
 10
234.850963
 20
74.966509
 30
0.0
 10
234.850963
 20
74.384459
 30
0.0
  0
SPLINE
  5
147
100
AcDbEntity
  8
0
 62
7
100
AcDbSpline
 70
8
 71
3
 72
8
 73
4
 74
0
 40
0
 40
0
 40
0
 40
0
 40
1
 40
1
 40
1
 40
1
 10
234.850963
 20
74.384459
 30
0.0
 10
234.850963
 20
73.802399
 30
0.0
 10
235.323533
 20
73.333359
 30
0.0
 10
235.902063
 20
73.333359
 30
0.0
  0
SPLINE
  5
148
100
AcDbEntity
  8
0
 62
7
100
AcDbSpline
 70
8
 71
3
 72
8
 73
4
 74
0
 40
0
 40
0
 40
0
 40
0
 40
1
 40
1
 40
1
 40
1
 10
235.902063
 20
73.333359
 30
0.0
 10
236.484113
 20
73.333359
 30
0.0
 10
236.953153
 20
73.802399
 30
0.0
 10
236.953153
 20
74.384459
 30
0.0
  0
SPLINE
  5
149
100
AcDbEntity
  8
0
 62
7
100
AcDbSpline
 70
8
 71
3
 72
8
 73
4
 74
0
 40
0
 40
0
 40
0
 40
0
 40
1
 40
1
 40
1
 40
1
 10
236.953153
 20
74.384459
 30
0.0
 10
236.953153
 20
74.966509
 30
0.0
 10
236.484113
 20
75.435559
 30
0.0
 10
235.902063
 20
75.435559
 30
0.0
  0
LWPOLYLINE
  5
14a
100
AcDbEntity
  8
0
 62
7
100
AcDbPolyline
 90
1
 70
1
 10
238.663643
 20
41.854659
 30
0.0
  0
SPLINE
  5
14b
100
AcDbEntity
  8
0
 62
7
100
AcDbSpline
 70
8
 71
3
 72
8
 73
4
 74
0
 40
0
 40
0
 40
0
 40
0
 40
1
 40
1
 40
1
 40
1
 10
257.166393
 20
106.839329
 30
0.0
 10
256.584333
 20
106.839329
 30
0.0
 10
256.115293
 20
106.370279
 30
0.0
 10
256.115293
 20
105.788229
 30
0.0
  0
SPLINE
  5
14c
100
AcDbEntity
  8
0
 62
7
100
AcDbSpline
 70
8
 71
3
 72
8
 73
4
 74
0
 40
0
 40
0
 40
0
 40
0
 40
1
 40
1
 40
1
 40
1
 10
256.115293
 20
105.788229
 30
0.0
 10
256.115293
 20
105.206169
 30
0.0
 10
256.587863
 20
104.737129
 30
0.0
 10
257.166393
 20
104.737129
 30
0.0
  0
SPLINE
  5
14d
100
AcDbEntity
  8
0
 62
7
100
AcDbSpline
 70
8
 71
3
 72
8
 73
4
 74
0
 40
0
 40
0
 40
0
 40
0
 40
1
 40
1
 40
1
 40
1
 10
257.166393
 20
104.737129
 30
0.0
 10
257.748443
 20
104.737129
 30
0.0
 10
258.217493
 20
105.206169
 30
0.0
 10
258.217493
 20
105.788229
 30
0.0
  0
SPLINE
  5
14e
100
AcDbEntity
  8
0
 62
7
100
AcDbSpline
 70
8
 71
3
 72
8
 73
4
 74
0
 40
0
 40
0
 40
0
 40
0
 40
1
 40
1
 40
1
 40
1
 10
258.217493
 20
105.788229
 30
0.0
 10
258.217493
 20
106.370279
 30
0.0
 10
257.748443
 20
106.839329
 30
0.0
 10
257.166393
 20
106.839329
 30
0.0
  0
LWPOLYLINE
  5
14f
100
AcDbEntity
  8
0
 62
7
100
AcDbPolyline
 90
1
 70
1
 10
235.902063
 20
75.435559
 30
0.0
  0
SPLINE
  5
150
100
AcDbEntity
  8
0
 62
7
100
AcDbSpline
 70
8
 71
3
 72
8
 73
4
 74
0
 40
0
 40
0
 40
0
 40
0
 40
1
 40
1
 40
1
 40
1
 10
213.992283
 20
107.720409
 30
0.0
 10
213.410233
 20
107.720409
 30
0.0
 10
212.940673
 20
107.251359
 30
0.0
 10
212.940673
 20
106.669309
 30
0.0
  0
SPLINE
  5
151
100
AcDbEntity
  8
0
 62
7
100
AcDbSpline
 70
8
 71
3
 72
8
 73
4
 74
0
 40
0
 40
0
 40
0
 40
0
 40
1
 40
1
 40
1
 40
1
 10
212.940673
 20
106.669309
 30
0.0
 10
212.940673
 20
106.087249
 30
0.0
 10
213.410233
 20
105.618209
 30
0.0
 10
213.992283
 20
105.618209
 30
0.0
  0
SPLINE
  5
152
100
AcDbEntity
  8
0
 62
7
100
AcDbSpline
 70
8
 71
3
 72
8
 73
4
 74
0
 40
0
 40
0
 40
0
 40
0
 40
1
 40
1
 40
1
 40
1
 10
213.992283
 20
105.618209
 30
0.0
 10
214.574343
 20
105.618209
 30
0.0
 10
215.043383
 20
106.087249
 30
0.0
 10
215.043383
 20
106.669309
 30
0.0
  0
SPLINE
  5
153
100
AcDbEntity
  8
0
 62
7
100
AcDbSpline
 70
8
 71
3
 72
8
 73
4
 74
0
 40
0
 40
0
 40
0
 40
0
 40
1
 40
1
 40
1
 40
1
 10
215.043383
 20
106.669309
 30
0.0
 10
215.043383
 20
107.251359
 30
0.0
 10
214.570813
 20
107.720409
 30
0.0
 10
213.992283
 20
107.720409
 30
0.0
  0
LWPOLYLINE
  5
154
100
AcDbEntity
  8
0
 62
7
100
AcDbPolyline
 90
1
 70
1
 10
257.166393
 20
106.839329
 30
0.0
  0
SPLINE
  5
155
100
AcDbEntity
  8
0
 62
7
100
AcDbSpline
 70
8
 71
3
 72
8
 73
4
 74
0
 40
0
 40
0
 40
0
 40
0
 40
1
 40
1
 40
1
 40
1
 10
242.752803
 20
107.763209
 30
0.0
 10
242.170743
 20
107.763209
 30
0.0
 10
241.701703
 20
107.294169
 30
0.0
 10
241.701703
 20
106.712109
 30
0.0
  0
SPLINE
  5
156
100
AcDbEntity
  8
0
 62
7
100
AcDbSpline
 70
8
 71
3
 72
8
 73
4
 74
0
 40
0
 40
0
 40
0
 40
0
 40
1
 40
1
 40
1
 40
1
 10
241.701703
 20
106.712109
 30
0.0
 10
241.701703
 20
106.130049
 30
0.0
 10
242.170743
 20
105.661009
 30
0.0
 10
242.752803
 20
105.661009
 30
0.0
  0
SPLINE
  5
157
100
AcDbEntity
  8
0
 62
7
100
AcDbSpline
 70
8
 71
3
 72
8
 73
4
 74
0
 40
0
 40
0
 40
0
 40
0
 40
1
 40
1
 40
1
 40
1
 10
242.752803
 20
105.661009
 30
0.0
 10
243.334863
 20
105.661009
 30
0.0
 10
243.803903
 20
106.130049
 30
0.0
 10
243.803903
 20
106.712109
 30
0.0
  0
SPLINE
  5
158
100
AcDbEntity
  8
0
 62
7
100
AcDbSpline
 70
8
 71
3
 72
8
 73
4
 74
0
 40
0
 40
0
 40
0
 40
0
 40
1
 40
1
 40
1
 40
1
 10
243.803903
 20
106.712109
 30
0.0
 10
243.803903
 20
107.294169
 30
0.0
 10
243.331333
 20
107.763209
 30
0.0
 10
242.752803
 20
107.763209
 30
0.0
  0
LWPOLYLINE
  5
159
100
AcDbEntity
  8
0
 62
7
100
AcDbPolyline
 90
1
 70
1
 10
213.992283
 20
107.720409
 30
0.0
  0
SPLINE
  5
15a
100
AcDbEntity
  8
0
 62
7
100
AcDbSpline
 70
8
 71
3
 72
8
 73
4
 74
0
 40
0
 40
0
 40
0
 40
0
 40
1
 40
1
 40
1
 40
1
 10
151.927343
 20
28.335589
 30
0.0
 10
151.345283
 20
28.335589
 30
0.0
 10
150.876243
 20
27.866549
 30
0.0
 10
150.876243
 20
27.284489
 30
0.0
  0
SPLINE
  5
15b
100
AcDbEntity
  8
0
 62
7
100
AcDbSpline
 70
8
 71
3
 72
8
 73
4
 74
0
 40
0
 40
0
 40
0
 40
0
 40
1
 40
1
 40
1
 40
1
 10
150.876243
 20
27.284489
 30
0.0
 10
150.876243
 20
26.702439
 30
0.0
 10
151.348813
 20
26.233389
 30
0.0
 10
151.927343
 20
26.233389
 30
0.0
  0
SPLINE
  5
15c
100
AcDbEntity
  8
0
 62
7
100
AcDbSpline
 70
8
 71
3
 72
8
 73
4
 74
0
 40
0
 40
0
 40
0
 40
0
 40
1
 40
1
 40
1
 40
1
 10
151.927343
 20
26.233389
 30
0.0
 10
152.509403
 20
26.233389
 30
0.0
 10
152.978433
 20
26.702439
 30
0.0
 10
152.978433
 20
27.284489
 30
0.0
  0
SPLINE
  5
15d
100
AcDbEntity
  8
0
 62
7
100
AcDbSpline
 70
8
 71
3
 72
8
 73
4
 74
0
 40
0
 40
0
 40
0
 40
0
 40
1
 40
1
 40
1
 40
1
 10
152.978433
 20
27.284489
 30
0.0
 10
152.978433
 20
27.866549
 30
0.0
 10
152.509403
 20
28.335589
 30
0.0
 10
151.927343
 20
28.335589
 30
0.0
  0
LWPOLYLINE
  5
15e
100
AcDbEntity
  8
0
 62
7
100
AcDbPolyline
 90
1
 70
1
 10
242.752803
 20
107.763209
 30
0.0
  0
SPLINE
  5
15f
100
AcDbEntity
  8
0
 62
7
100
AcDbSpline
 70
8
 71
3
 72
8
 73
4
 74
0
 40
0
 40
0
 40
0
 40
0
 40
1
 40
1
 40
1
 40
1
 10
151.927343
 20
107.759209
 30
0.0
 10
151.345283
 20
107.759209
 30
0.0
 10
150.876243
 20
107.290169
 30
0.0
 10
150.876243
 20
106.708109
 30
0.0
  0
SPLINE
  5
160
100
AcDbEntity
  8
0
 62
7
100
AcDbSpline
 70
8
 71
3
 72
8
 73
4
 74
0
 40
0
 40
0
 40
0
 40
0
 40
1
 40
1
 40
1
 40
1
 10
150.876243
 20
106.708109
 30
0.0
 10
150.876243
 20
106.126059
 30
0.0
 10
151.345283
 20
105.657009
 30
0.0
 10
151.927343
 20
105.657009
 30
0.0
  0
SPLINE
  5
161
100
AcDbEntity
  8
0
 62
7
100
AcDbSpline
 70
8
 71
3
 72
8
 73
4
 74
0
 40
0
 40
0
 40
0
 40
0
 40
1
 40
1
 40
1
 40
1
 10
151.927343
 20
105.657009
 30
0.0
 10
152.509403
 20
105.657009
 30
0.0
 10
152.978433
 20
106.126059
 30
0.0
 10
152.978433
 20
106.708109
 30
0.0
  0
SPLINE
  5
162
100
AcDbEntity
  8
0
 62
7
100
AcDbSpline
 70
8
 71
3
 72
8
 73
4
 74
0
 40
0
 40
0
 40
0
 40
0
 40
1
 40
1
 40
1
 40
1
 10
152.978433
 20
106.708109
 30
0.0
 10
152.978433
 20
107.290169
 30
0.0
 10
152.505873
 20
107.759209
 30
0.0
 10
151.927343
 20
107.759209
 30
0.0
  0
LWPOLYLINE
  5
163
100
AcDbEntity
  8
0
 62
7
100
AcDbPolyline
 90
1
 70
1
 10
151.927343
 20
28.335589
 30
0.0
  0
SPLINE
  5
164
100
AcDbEntity
  8
0
 62
7
100
AcDbSpline
 70
8
 71
3
 72
8
 73
4
 74
0
 40
0
 40
0
 40
0
 40
0
 40
1
 40
1
 40
1
 40
1
 10
7.633579
 20
28.247465
 30
0.0
 10
7.051519
 20
28.247465
 30
0.0
 10
6.582481
 20
27.778425
 30
0.0
 10
6.582481
 20
27.196365
 30
0.0
  0
SPLINE
  5
165
100
AcDbEntity
  8
0
 62
7
100
AcDbSpline
 70
8
 71
3
 72
8
 73
4
 74
0
 40
0
 40
0
 40
0
 40
0
 40
1
 40
1
 40
1
 40
1
 10
6.582481
 20
27.196365
 30
0.0
 10
6.582481
 20
26.614315
 30
0.0
 10
7.055049
 20
26.145265
 30
0.0
 10
7.633579
 20
26.145265
 30
0.0
  0
SPLINE
  5
166
100
AcDbEntity
  8
0
 62
7
100
AcDbSpline
 70
8
 71
3
 72
8
 73
4
 74
0
 40
0
 40
0
 40
0
 40
0
 40
1
 40
1
 40
1
 40
1
 10
7.633579
 20
26.145265
 30
0.0
 10
8.215639
 20
26.145265
 30
0.0
 10
8.684677
 20
26.614315
 30
0.0
 10
8.684677
 20
27.196365
 30
0.0
  0
SPLINE
  5
167
100
AcDbEntity
  8
0
 62
7
100
AcDbSpline
 70
8
 71
3
 72
8
 73
4
 74
0
 40
0
 40
0
 40
0
 40
0
 40
1
 40
1
 40
1
 40
1
 10
8.684677
 20
27.196365
 30
0.0
 10
8.684677
 20
27.778425
 30
0.0
 10
8.215639
 20
28.247465
 30
0.0
 10
7.633579
 20
28.247465
 30
0.0
  0
LWPOLYLINE
  5
168
100
AcDbEntity
  8
0
 62
7
100
AcDbPolyline
 90
1
 70
1
 10
151.927343
 20
107.759209
 30
0.0
  0
SPLINE
  5
169
100
AcDbEntity
  8
0
 62
7
100
AcDbSpline
 70
8
 71
3
 72
8
 73
4
 74
0
 40
0
 40
0
 40
0
 40
0
 40
1
 40
1
 40
1
 40
1
 10
105.866864
 20
40.928865
 30
0.0
 10
105.284804
 20
40.928865
 30
0.0
 10
104.815754
 20
40.459825
 30
0.0
 10
104.815754
 20
39.877765
 30
0.0
  0
SPLINE
  5
16a
100
AcDbEntity
  8
0
 62
7
100
AcDbSpline
 70
8
 71
3
 72
8
 73
4
 74
0
 40
0
 40
0
 40
0
 40
0
 40
1
 40
1
 40
1
 40
1
 10
104.815754
 20
39.877765
 30
0.0
 10
104.815754
 20
39.295715
 30
0.0
 10
105.288334
 20
38.826145
 30
0.0
 10
105.866864
 20
38.826145
 30
0.0
  0
SPLINE
  5
16b
100
AcDbEntity
  8
0
 62
7
100
AcDbSpline
 70
8
 71
3
 72
8
 73
4
 74
0
 40
0
 40
0
 40
0
 40
0
 40
1
 40
1
 40
1
 40
1
 10
105.866864
 20
38.826145
 30
0.0
 10
106.448904
 20
38.826145
 30
0.0
 10
106.917964
 20
39.295715
 30
0.0
 10
106.917964
 20
39.877765
 30
0.0
  0
SPLINE
  5
16c
100
AcDbEntity
  8
0
 62
7
100
AcDbSpline
 70
8
 71
3
 72
8
 73
4
 74
0
 40
0
 40
0
 40
0
 40
0
 40
1
 40
1
 40
1
 40
1
 10
106.917964
 20
39.877765
 30
0.0
 10
106.917964
 20
40.459825
 30
0.0
 10
106.448914
 20
40.928865
 30
0.0
 10
105.866864
 20
40.928865
 30
0.0
  0
LWPOLYLINE
  5
16d
100
AcDbEntity
  8
0
 62
7
100
AcDbPolyline
 90
1
 70
1
 10
7.633579
 20
28.247465
 30
0.0
  0
SPLINE
  5
16e
100
AcDbEntity
  8
0
 62
7
100
AcDbSpline
 70
8
 71
3
 72
8
 73
4
 74
0
 40
0
 40
0
 40
0
 40
0
 40
1
 40
1
 40
1
 40
1
 10
94.369889
 20
41.766535
 30
0.0
 10
93.787829
 20
41.766535
 30
0.0
 10
93.318799
 20
41.297495
 30
0.0
 10
93.318799
 20
40.715435
 30
0.0
  0
SPLINE
  5
16f
100
AcDbEntity
  8
0
 62
7
100
AcDbSpline
 70
8
 71
3
 72
8
 73
4
 74
0
 40
0
 40
0
 40
0
 40
0
 40
1
 40
1
 40
1
 40
1
 10
93.318799
 20
40.715435
 30
0.0
 10
93.318799
 20
40.133385
 30
0.0
 10
93.791359
 20
39.663825
 30
0.0
 10
94.369889
 20
39.663825
 30
0.0
  0
SPLINE
  5
170
100
AcDbEntity
  8
0
 62
7
100
AcDbSpline
 70
8
 71
3
 72
8
 73
4
 74
0
 40
0
 40
0
 40
0
 40
0
 40
1
 40
1
 40
1
 40
1
 10
94.369889
 20
39.663825
 30
0.0
 10
94.951939
 20
39.663825
 30
0.0
 10
95.420989
 20
40.133385
 30
0.0
 10
95.420989
 20
40.715435
 30
0.0
  0
SPLINE
  5
171
100
AcDbEntity
  8
0
 62
7
100
AcDbSpline
 70
8
 71
3
 72
8
 73
4
 74
0
 40
0
 40
0
 40
0
 40
0
 40
1
 40
1
 40
1
 40
1
 10
95.420989
 20
40.715435
 30
0.0
 10
95.420989
 20
41.297495
 30
0.0
 10
94.951939
 20
41.766535
 30
0.0
 10
94.369889
 20
41.766535
 30
0.0
  0
LWPOLYLINE
  5
172
100
AcDbEntity
  8
0
 62
7
100
AcDbPolyline
 90
1
 70
1
 10
105.866864
 20
40.928865
 30
0.0
  0
SPLINE
  5
173
100
AcDbEntity
  8
0
 62
7
100
AcDbSpline
 70
8
 71
3
 72
8
 73
4
 74
0
 40
0
 40
0
 40
0
 40
0
 40
1
 40
1
 40
1
 40
1
 10
91.608309
 20
75.347439
 30
0.0
 10
91.026249
 20
75.347439
 30
0.0
 10
90.557209
 20
74.878389
 30
0.0
 10
90.557209
 20
74.296339
 30
0.0
  0
SPLINE
  5
174
100
AcDbEntity
  8
0
 62
7
100
AcDbSpline
 70
8
 71
3
 72
8
 73
4
 74
0
 40
0
 40
0
 40
0
 40
0
 40
1
 40
1
 40
1
 40
1
 10
90.557209
 20
74.296339
 30
0.0
 10
90.557209
 20
73.714279
 30
0.0
 10
91.029779
 20
73.245239
 30
0.0
 10
91.608309
 20
73.245239
 30
0.0
  0
SPLINE
  5
175
100
AcDbEntity
  8
0
 62
7
100
AcDbSpline
 70
8
 71
3
 72
8
 73
4
 74
0
 40
0
 40
0
 40
0
 40
0
 40
1
 40
1
 40
1
 40
1
 10
91.608309
 20
73.245239
 30
0.0
 10
92.190359
 20
73.245239
 30
0.0
 10
92.659399
 20
73.714279
 30
0.0
 10
92.659399
 20
74.296339
 30
0.0
  0
SPLINE
  5
176
100
AcDbEntity
  8
0
 62
7
100
AcDbSpline
 70
8
 71
3
 72
8
 73
4
 74
0
 40
0
 40
0
 40
0
 40
0
 40
1
 40
1
 40
1
 40
1
 10
92.659399
 20
74.296339
 30
0.0
 10
92.659399
 20
74.878389
 30
0.0
 10
92.190359
 20
75.347439
 30
0.0
 10
91.608309
 20
75.347439
 30
0.0
  0
LWPOLYLINE
  5
177
100
AcDbEntity
  8
0
 62
7
100
AcDbPolyline
 90
1
 70
1
 10
94.369889
 20
41.766535
 30
0.0
  0
SPLINE
  5
178
100
AcDbEntity
  8
0
 62
7
100
AcDbSpline
 70
8
 71
3
 72
8
 73
4
 74
0
 40
0
 40
0
 40
0
 40
0
 40
1
 40
1
 40
1
 40
1
 10
112.872624
 20
106.751205
 30
0.0
 10
112.290574
 20
106.751205
 30
0.0
 10
111.821524
 20
106.282155
 30
0.0
 10
111.821524
 20
105.700105
 30
0.0
  0
SPLINE
  5
179
100
AcDbEntity
  8
0
 62
7
100
AcDbSpline
 70
8
 71
3
 72
8
 73
4
 74
0
 40
0
 40
0
 40
0
 40
0
 40
1
 40
1
 40
1
 40
1
 10
111.821524
 20
105.700105
 30
0.0
 10
111.821524
 20
105.118045
 30
0.0
 10
112.294094
 20
104.649005
 30
0.0
 10
112.872624
 20
104.649005
 30
0.0
  0
SPLINE
  5
17a
100
AcDbEntity
  8
0
 62
7
100
AcDbSpline
 70
8
 71
3
 72
8
 73
4
 74
0
 40
0
 40
0
 40
0
 40
0
 40
1
 40
1
 40
1
 40
1
 10
112.872624
 20
104.649005
 30
0.0
 10
113.454674
 20
104.649005
 30
0.0
 10
113.923734
 20
105.118045
 30
0.0
 10
113.923734
 20
105.700105
 30
0.0
  0
SPLINE
  5
17b
100
AcDbEntity
  8
0
 62
7
100
AcDbSpline
 70
8
 71
3
 72
8
 73
4
 74
0
 40
0
 40
0
 40
0
 40
0
 40
1
 40
1
 40
1
 40
1
 10
113.923734
 20
105.700105
 30
0.0
 10
113.923734
 20
106.282155
 30
0.0
 10
113.454684
 20
106.751205
 30
0.0
 10
112.872624
 20
106.751205
 30
0.0
  0
LWPOLYLINE
  5
17c
100
AcDbEntity
  8
0
 62
7
100
AcDbPolyline
 90
1
 70
1
 10
91.608309
 20
75.347439
 30
0.0
  0
SPLINE
  5
17d
100
AcDbEntity
  8
0
 62
7
100
AcDbSpline
 70
8
 71
3
 72
8
 73
4
 74
0
 40
0
 40
0
 40
0
 40
0
 40
1
 40
1
 40
1
 40
1
 10
69.698524
 20
107.632285
 30
0.0
 10
69.116474
 20
107.632285
 30
0.0
 10
68.646914
 20
107.163235
 30
0.0
 10
68.646914
 20
106.581185
 30
0.0
  0
SPLINE
  5
17e
100
AcDbEntity
  8
0
 62
7
100
AcDbSpline
 70
8
 71
3
 72
8
 73
4
 74
0
 40
0
 40
0
 40
0
 40
0
 40
1
 40
1
 40
1
 40
1
 10
68.646914
 20
106.581185
 30
0.0
 10
68.646914
 20
105.999125
 30
0.0
 10
69.116474
 20
105.530085
 30
0.0
 10
69.698524
 20
105.530085
 30
0.0
  0
SPLINE
  5
17f
100
AcDbEntity
  8
0
 62
7
100
AcDbSpline
 70
8
 71
3
 72
8
 73
4
 74
0
 40
0
 40
0
 40
0
 40
0
 40
1
 40
1
 40
1
 40
1
 10
69.698524
 20
105.530085
 30
0.0
 10
70.280584
 20
105.530085
 30
0.0
 10
70.749624
 20
105.999125
 30
0.0
 10
70.749624
 20
106.581185
 30
0.0
  0
SPLINE
  5
180
100
AcDbEntity
  8
0
 62
7
100
AcDbSpline
 70
8
 71
3
 72
8
 73
4
 74
0
 40
0
 40
0
 40
0
 40
0
 40
1
 40
1
 40
1
 40
1
 10
70.749624
 20
106.581185
 30
0.0
 10
70.749624
 20
107.163235
 30
0.0
 10
70.277054
 20
107.632285
 30
0.0
 10
69.698524
 20
107.632285
 30
0.0
  0
LWPOLYLINE
  5
181
100
AcDbEntity
  8
0
 62
7
100
AcDbPolyline
 90
1
 70
1
 10
112.872624
 20
106.751205
 30
0.0
  0
SPLINE
  5
182
100
AcDbEntity
  8
0
 62
7
100
AcDbSpline
 70
8
 71
3
 72
8
 73
4
 74
0
 40
0
 40
0
 40
0
 40
0
 40
1
 40
1
 40
1
 40
1
 10
7.633579
 20
107.671085
 30
0.0
 10
7.051519
 20
107.671085
 30
0.0
 10
6.582481
 20
107.202045
 30
0.0
 10
6.582481
 20
106.619985
 30
0.0
  0
SPLINE
  5
183
100
AcDbEntity
  8
0
 62
7
100
AcDbSpline
 70
8
 71
3
 72
8
 73
4
 74
0
 40
0
 40
0
 40
0
 40
0
 40
1
 40
1
 40
1
 40
1
 10
6.582481
 20
106.619985
 30
0.0
 10
6.582481
 20
106.037935
 30
0.0
 10
7.051519
 20
105.568885
 30
0.0
 10
7.633579
 20
105.568885
 30
0.0
  0
SPLINE
  5
184
100
AcDbEntity
  8
0
 62
7
100
AcDbSpline
 70
8
 71
3
 72
8
 73
4
 74
0
 40
0
 40
0
 40
0
 40
0
 40
1
 40
1
 40
1
 40
1
 10
7.633579
 20
105.568885
 30
0.0
 10
8.215639
 20
105.568885
 30
0.0
 10
8.684677
 20
106.037935
 30
0.0
 10
8.684677
 20
106.619985
 30
0.0
  0
SPLINE
  5
185
100
AcDbEntity
  8
0
 62
7
100
AcDbSpline
 70
8
 71
3
 72
8
 73
4
 74
0
 40
0
 40
0
 40
0
 40
0
 40
1
 40
1
 40
1
 40
1
 10
8.684677
 20
106.619985
 30
0.0
 10
8.684677
 20
107.202045
 30
0.0
 10
8.212109
 20
107.671085
 30
0.0
 10
7.633579
 20
107.671085
 30
0.0
  0
LWPOLYLINE
  5
186
100
AcDbEntity
  8
0
 62
7
100
AcDbPolyline
 90
1
 70
1
 10
69.698524
 20
107.632285
 30
0.0
  0
SPLINE
  5
187
100
AcDbEntity
  8
0
 62
7
100
AcDbSpline
 70
8
 71
3
 72
8
 73
4
 74
0
 40
0
 40
0
 40
0
 40
0
 40
1
 40
1
 40
1
 40
1
 10
98.459044
 20
107.675085
 30
0.0
 10
97.876984
 20
107.675085
 30
0.0
 10
97.407944
 20
107.206045
 30
0.0
 10
97.407944
 20
106.623985
 30
0.0
  0
SPLINE
  5
188
100
AcDbEntity
  8
0
 62
7
100
AcDbSpline
 70
8
 71
3
 72
8
 73
4
 74
0
 40
0
 40
0
 40
0
 40
0
 40
1
 40
1
 40
1
 40
1
 10
97.407944
 20
106.623985
 30
0.0
 10
97.407944
 20
106.041925
 30
0.0
 10
97.876984
 20
105.572885
 30
0.0
 10
98.459044
 20
105.572885
 30
0.0
  0
SPLINE
  5
189
100
AcDbEntity
  8
0
 62
7
100
AcDbSpline
 70
8
 71
3
 72
8
 73
4
 74
0
 40
0
 40
0
 40
0
 40
0
 40
1
 40
1
 40
1
 40
1
 10
98.459044
 20
105.572885
 30
0.0
 10
99.041104
 20
105.572885
 30
0.0
 10
99.510144
 20
106.041925
 30
0.0
 10
99.510144
 20
106.623985
 30
0.0
  0
SPLINE
  5
18a
100
AcDbEntity
  8
0
 62
7
100
AcDbSpline
 70
8
 71
3
 72
8
 73
4
 74
0
 40
0
 40
0
 40
0
 40
0
 40
1
 40
1
 40
1
 40
1
 10
99.510144
 20
106.623985
 30
0.0
 10
99.510144
 20
107.206045
 30
0.0
 10
99.037574
 20
107.675085
 30
0.0
 10
98.459044
 20
107.675085
 30
0.0
  0
LWPOLYLINE
  5
18b
100
AcDbEntity
  8
0
 62
7
100
AcDbPolyline
 90
1
 70
1
 10
7.633579
 20
107.671085
 30
0.0
  0
LWPOLYLINE
  5
18c
100
AcDbEntity
  8
0
 62
7
100
AcDbPolyline
 90
1
 70
1
 10
98.459044
 20
107.675085
 30
0.0
  0
LWPOLYLINE
  5
18d
100
AcDbEntity
  8
0
 62
7
100
AcDbPolyline
 90
4
 70
1
 10
132.694214
 20
69.640592
 30
0.0
 10
118.908314
 20
72.071112
 30
0.0
 10
121.338834
 20
85.857022
 30
0.0
 10
135.124744
 20
83.426492
 30
0.0
  0
LWPOLYLINE
  5
18e
100
AcDbEntity
  8
0
 62
7
100
AcDbPolyline
 90
4
 70
1
 10
129.392374
 20
50.916032
 30
0.0
 10
115.606464
 20
53.346552
 30
0.0
 10
118.036994
 20
67.132462
 30
0.0
 10
131.822894
 20
64.701932
 30
0.0
  0
LWPOLYLINE
  5
18f
100
AcDbEntity
  8
0
 62
7
100
AcDbPolyline
 90
4
 70
1
 10
126.101114
 20
32.103272
 30
0.0
 10
112.315204
 20
34.533792
 30
0.0
 10
114.745734
 20
48.319712
 30
0.0
 10
128.531634
 20
45.889172
 30
0.0
  0
LWPOLYLINE
  5
190
100
AcDbEntity
  8
0
 62
7
100
AcDbPolyline
 90
4
 70
1
 10
97.732059
 20
85.747662
 30
0.0
 10
98.709209
 20
99.713482
 30
0.0
 10
112.675024
 20
98.736332
 30
0.0
 10
111.697874
 20
84.770512
 30
0.0
  0
LWPOLYLINE
  5
191
100
AcDbEntity
  8
0
 62
7
100
AcDbPolyline
 90
4
 70
1
 10
110.371494
 20
65.806082
 30
0.0
 10
96.405689
 20
66.783222
 30
0.0
 10
97.382829
 20
80.749042
 30
0.0
 10
111.348644
 20
79.771892
 30
0.0
  0
LWPOLYLINE
  5
192
100
AcDbEntity
  8
0
 62
7
100
AcDbPolyline
 90
4
 70
1
 10
109.066274
 20
46.753442
 30
0.0
 10
95.100469
 20
47.730582
 30
0.0
 10
96.077619
 20
61.696412
 30
0.0
 10
110.043424
 20
60.719262
 30
0.0
  0
LWPOLYLINE
  5
193
100
AcDbEntity
  8
0
 62
7
100
AcDbPolyline
 90
4
 70
1
 10
90.451079
 20
57.590272
 30
0.0
 10
76.449987
 20
57.590272
 30
0.0
 10
76.449987
 20
71.587832
 30
0.0
 10
90.451079
 20
71.587832
 30
0.0
  0
LWPOLYLINE
  5
194
100
AcDbEntity
  8
0
 62
7
100
AcDbPolyline
 90
4
 70
1
 10
76.425297
 20
90.686322
 30
0.0
 10
90.426389
 20
90.686322
 30
0.0
 10
90.426389
 20
76.685232
 30
0.0
 10
76.425297
 20
76.685232
 30
0.0
  0
LWPOLYLINE
  5
195
100
AcDbEntity
  8
0
 62
7
100
AcDbPolyline
 90
4
 70
1
 10
74.326367
 20
26.593142
 30
0.0
 10
60.328814
 20
26.593142
 30
0.0
 10
60.328814
 20
40.590702
 30
0.0
 10
74.326367
 20
40.590702
 30
0.0
  0
LWPOLYLINE
  5
196
100
AcDbEntity
  8
0
 62
7
100
AcDbPolyline
 90
4
 70
1
 10
57.376204
 20
62.592422
 30
0.0
 10
71.377287
 20
62.592422
 30
0.0
 10
71.377287
 20
48.591332
 30
0.0
 10
57.376204
 20
48.591332
 30
0.0
  0
LWPOLYLINE
  5
197
100
AcDbEntity
  8
0
 62
7
100
AcDbPolyline
 90
4
 70
1
 10
41.265604
 20
22.141292
 30
0.0
 10
37.642744
 20
35.662632
 30
0.0
 10
51.164074
 20
39.285482
 30
0.0
 10
54.786934
 20
25.764152
 30
0.0
  0
LWPOLYLINE
  5
198
100
AcDbEntity
  8
0
 62
7
100
AcDbPolyline
 90
4
 70
1
 10
24.001474
 20
12.948350
 30
0.0
 10
17.002694
 20
25.072742
 30
0.0
 10
29.127094
 20
32.071522
 30
0.0
 10
36.125874
 20
19.947122
 30
0.0
  0
LWPOLYLINE
  5
199
100
AcDbEntity
  8
0
 62
7
100
AcDbPolyline
 90
4
 70
1
 10
13.171704
 20
55.015115
 30
0.0
 10
26.770644
 20
55.015115
 30
0.0
 10
26.770644
 20
41.814782
 30
0.0
 10
13.171704
 20
41.814782
 30
0.0
  0
LWPOLYLINE
  5
19a
100
AcDbEntity
  8
0
 62
7
100
AcDbPolyline
 90
4
 70
1
 10
34.044584
 20
82.230632
 30
0.0
 10
34.044584
 20
67.414672
 30
0.0
 10
7.658044
 20
67.414672
 30
0.0
 10
7.658044
 20
82.230632
 30
0.0
  0
LWPOLYLINE
  5
19b
100
AcDbEntity
  8
0
 62
7
100
AcDbPolyline
 90
4
 70
1
 10
38.383564
 20
59.541042
 30
0.0
 10
52.381124
 20
59.541042
 30
0.0
 10
52.381124
 20
45.539942
 30
0.0
 10
38.383544
 20
45.539942
 30
0.0
  0
LWPOLYLINE
  5
19c
100
AcDbEntity
  8
0
 62
7
100
AcDbPolyline
 90
4
 70
1
 10
38.383564
 20
78.639532
 30
0.0
 10
52.381124
 20
78.639532
 30
0.0
 10
52.381124
 20
64.638442
 30
0.0
 10
38.383544
 20
64.638442
 30
0.0
  0
LWPOLYLINE
  5
19d
100
AcDbEntity
  8
0
 62
7
100
AcDbPolyline
 90
4
 70
1
 10
38.411764
 20
97.738012
 30
0.0
 10
52.409324
 20
97.738012
 30
0.0
 10
52.409324
 20
83.736922
 30
0.0
 10
38.411764
 20
83.736922
 30
0.0
  0
LWPOLYLINE
  5
19e
100
AcDbEntity
  8
0
 62
7
100
AcDbPolyline
 90
4
 70
1
 10
57.404424
 20
81.616832
 30
0.0
 10
71.405507
 20
81.616832
 30
0.0
 10
71.405507
 20
67.615742
 30
0.0
 10
57.404424
 20
67.615742
 30
0.0
  0
LWPOLYLINE
  5
19f
100
AcDbEntity
  8
0
 62
7
100
AcDbPolyline
 90
4
 70
1
 10
57.404424
 20
100.701212
 30
0.0
 10
71.405507
 20
100.701212
 30
0.0
 10
71.405507
 20
86.703652
 30
0.0
 10
57.404424
 20
86.703652
 30
0.0
  0
LWPOLYLINE
  5
1a0
100
AcDbEntity
  8
0
 62
7
100
AcDbPolyline
 90
4
 70
1
 10
76.425297
 20
109.700142
 30
0.0
 10
90.426389
 20
109.700142
 30
0.0
 10
90.426389
 20
95.699052
 30
0.0
 10
76.425297
 20
95.699052
 30
0.0
  0
SPLINE
  5
1a1
100
AcDbEntity
  8
0
 62
7
100
AcDbSpline
 70
8
 71
3
 72
8
 73
4
 74
0
 40
0
 40
0
 40
0
 40
0
 40
1
 40
1
 40
1
 40
1
 10
136.944984
 20
108.518392
 30
0.0
 10
136.944984
 20
108.906432
 30
0.0
 10
136.631024
 20
109.216862
 30
0.0
 10
136.246524
 20
109.216862
 30
0.0
  0
LWPOLYLINE
  5
1a2
100
AcDbEntity
  8
0
 62
7
100
AcDbPolyline
 90
3
 70
0
 10
138.451274
 20
86.432022
 30
0.0
 10
136.944984
 20
86.696592
 30
0.0
 10
136.944984
 20
108.518392
 30
0.0
  0
SPLINE
  5
1a3
100
AcDbEntity
  8
0
 62
7
100
AcDbSpline
 70
8
 71
3
 72
8
 73
4
 74
0
 40
0
 40
0
 40
0
 40
0
 40
1
 40
1
 40
1
 40
1
 10
93.943419
 20
112.465793
 30
0.0
 10
93.943419
 20
112.853833
 30
0.0
 10
93.629459
 20
113.164263
 30
0.0
 10
93.244949
 20
113.164263
 30
0.0
  0
LWPOLYLINE
  5
1a4
100
AcDbEntity
  8
0
 62
7
100
AcDbPolyline
 90
3
 70
0
 10
136.246524
 20
109.216862
 30
0.0
 10
93.943419
 20
109.216862
 30
0.0
 10
93.943419
 20
112.465793
 30
0.0
  0
SPLINE
  5
1a5
100
AcDbEntity
  8
0
 62
7
100
AcDbSpline
 70
8
 71
3
 72
8
 73
4
 74
0
 40
0
 40
0
 40
0
 40
0
 40
1
 40
1
 40
1
 40
1
 10
73.620847
 20
113.164263
 30
0.0
 10
73.232807
 20
113.164263
 30
0.0
 10
72.922377
 20
112.850303
 30
0.0
 10
72.922377
 20
112.465793
 30
0.0
  0
LWPOLYLINE
  5
1a6
100
AcDbEntity
  8
0
 62
7
100
AcDbPolyline
 90
2
 70
0
 10
93.244949
 20
113.164263
 30
0.0
 10
73.620847
 20
113.164263
 30
0.0
  0
SPLINE
  5
1a7
100
AcDbEntity
  8
0
 62
7
100
AcDbSpline
 70
8
 71
3
 72
8
 73
4
 74
0
 40
0
 40
0
 40
0
 40
0
 40
1
 40
1
 40
1
 40
1
 10
5.714335
 20
109.216862
 30
0.0
 10
5.326295
 20
109.216862
 30
0.0
 10
5.015865
 20
108.902902
 30
0.0
 10
5.015865
 20
108.518392
 30
0.0
  0
LWPOLYLINE
  5
1a8
100
AcDbEntity
  8
0
 62
7
100
AcDbPolyline
 90
3
 70
0
 10
72.922377
 20
112.465793
 30
0.0
 10
72.922377
 20
109.216862
 30
0.0
 10
5.714335
 20
109.216862
 30
0.0
  0
SPLINE
  5
1a9
100
AcDbEntity
  8
0
 62
7
100
AcDbSpline
 70
8
 71
3
 72
8
 73
4
 74
0
 40
0
 40
0
 40
0
 40
0
 40
1
 40
1
 40
1
 40
1
 10
5.015888
 20
13.085900
 30
0.0
 10
5.015843
 20
12.697860
 30
0.0
 10
5.329848
 20
12.387430
 30
0.0
 10
5.714358
 20
12.387430
 30
0.0
  0
LWPOLYLINE
  5
1aa
100
AcDbEntity
  8
0
 62
7
100
AcDbPolyline
 90
6
 70
0
 10
5.015865
 20
108.518392
 30
0.0
 10
5.016532
 20
38.723622
 30
0.0
 10
17.999127
 20
38.724622
 30
0.0
 10
17.999386
 20
29.578122
 30
0.0
 10
5.017788
 20
29.567622
 30
0.0
 10
5.015888
 20
13.085900
 30
0.0
  0
SPLINE
  5
1ab
100
AcDbEntity
  8
0
 62
7
100
AcDbSpline
 70
8
 71
3
 72
8
 73
4
 74
0
 40
0
 40
0
 40
0
 40
0
 40
1
 40
1
 40
1
 40
1
 10
22.399957
 20
8.722240
 30
0.0
 10
22.593977
 20
8.387120
 30
0.0
 10
23.024347
 20
8.270710
 30
0.0
 10
23.359467
 20
8.468260
 30
0.0
  0
LWPOLYLINE
  5
1ac
100
AcDbEntity
  8
0
 62
7
100
AcDbPolyline
 90
3
 70
0
 10
5.714358
 20
12.387430
 30
0.0
 10
20.286917
 20
12.387430
 30
0.0
 10
22.399957
 20
8.722240
 30
0.0
  0
SPLINE
  5
1ad
100
AcDbEntity
  8
0
 62
7
100
AcDbSpline
 70
8
 71
3
 72
8
 73
4
 74
0
 40
0
 40
0
 40
0
 40
0
 40
1
 40
1
 40
1
 40
1
 10
29.575117
 20
12.080530
 30
0.0
 10
29.575117
 20
12.080530
 30
0.0
 10
31.074357
 20
13.015350
 30
0.0
 10
31.825737
 20
13.449240
 30
0.0
  0
SPLINE
  5
1ae
100
AcDbEntity
  8
0
 62
7
100
AcDbSpline
 70
8
 71
3
 72
8
 73
4
 74
0
 40
0
 40
0
 40
0
 40
0
 40
1
 40
1
 40
1
 40
1
 10
31.825737
 20
13.449240
 30
0.0
 10
37.364087
 20
16.648770
 30
0.0
 10
43.311637
 20
19.139272
 30
0.0
 10
48.962867
 20
20.652612
 30
0.0
  0
SPLINE
  5
1af
100
AcDbEntity
  8
0
 62
7
100
AcDbSpline
 70
8
 71
3
 72
8
 73
4
 74
0
 40
0
 40
0
 40
0
 40
0
 40
1
 40
1
 40
1
 40
1
 10
48.962867
 20
20.652612
 30
0.0
 10
55.122077
 20
22.303532
 30
0.0
 10
61.468257
 20
23.164272
 30
0.0
 10
67.348787
 20
23.185442
 30
0.0
  0
LWPOLYLINE
  5
1b0
100
AcDbEntity
  8
0
 62
7
100
AcDbPolyline
 90
2
 70
0
 10
23.359467
 20
8.468260
 30
0.0
 10
29.575117
 20
12.080530
 30
0.0
  0
SPLINE
  5
1b1
100
AcDbEntity
  8
0
 62
7
100
AcDbSpline
 70
8
 71
3
 72
8
 73
4
 74
0
 40
0
 40
0
 40
0
 40
0
 40
1
 40
1
 40
1
 40
1
 10
77.159057
 20
23.185442
 30
0.0
 10
77.547097
 20
23.185442
 30
0.0
 10
77.857527
 20
23.499392
 30
0.0
 10
77.857527
 20
23.883902
 30
0.0
  0
LWPOLYLINE
  5
1b2
100
AcDbEntity
  8
0
 62
7
100
AcDbPolyline
 90
2
 70
0
 10
67.348787
 20
23.185442
 30
0.0
 10
77.159057
 20
23.185442
 30
0.0
  0
SPLINE
  5
1b3
100
AcDbEntity
  8
0
 62
7
100
AcDbSpline
 70
8
 71
3
 72
8
 73
4
 74
0
 40
0
 40
0
 40
0
 40
0
 40
1
 40
1
 40
1
 40
1
 10
108.325494
 20
32.452502
 30
0.0
 10
108.258494
 20
32.071522
 30
0.0
 10
108.512464
 20
31.708182
 30
0.0
 10
108.893444
 20
31.641152
 30
0.0
  0
LWPOLYLINE
  5
1b4
100
AcDbEntity
  8
0
 62
7
100
AcDbPolyline
 90
5
 70
0
 10
77.857527
 20
23.883902
 30
0.0
 10
77.857527
 20
36.939622
 30
0.0
 10
93.837609
 20
36.939622
 30
0.0
 10
108.928724
 20
35.881342
 30
0.0
 10
108.325494
 20
32.452502
 30
0.0
  0
SPLINE
  5
1b5
100
AcDbEntity
  8
0
 62
7
100
AcDbSpline
 70
8
 71
3
 72
8
 73
4
 74
0
 40
0
 40
0
 40
0
 40
0
 40
1
 40
1
 40
1
 40
1
 10
128.161244
 20
28.244062
 30
0.0
 10
128.542224
 20
28.177062
 30
0.0
 10
128.905574
 20
28.431032
 30
0.0
 10
128.972604
 20
28.812012
 30
0.0
  0
LWPOLYLINE
  5
1b6
100
AcDbEntity
  8
0
 62
7
100
AcDbPolyline
 90
2
 70
0
 10
108.893444
 20
31.641152
 30
0.0
 10
128.161244
 20
28.244062
 30
0.0
  0
SPLINE
  5
1b7
100
AcDbEntity
  8
0
 62
7
100
AcDbSpline
 70
8
 71
3
 72
8
 73
4
 74
0
 40
0
 40
0
 40
0
 40
0
 40
1
 40
1
 40
1
 40
1
 10
136.246534
 20
33.800052
 30
0.0
 10
136.634574
 20
33.800052
 30
0.0
 10
136.945004
 20
34.114012
 30
0.0
 10
136.945004
 20
34.498522
 30
0.0
  0
LWPOLYLINE
  5
1b8
100
AcDbEntity
  8
0
 62
7
100
AcDbPolyline
 90
3
 70
0
 10
128.972604
 20
28.812012
 30
0.0
 10
129.850974
 20
33.800052
 30
0.0
 10
136.246534
 20
33.800052
 30
0.0
  0
SPLINE
  5
1b9
100
AcDbEntity
  8
0
 62
7
100
AcDbSpline
 70
8
 71
3
 72
8
 73
4
 74
0
 40
0
 40
0
 40
0
 40
0
 40
1
 40
1
 40
1
 40
1
 10
139.019234
 20
85.620672
 30
0.0
 10
139.086234
 20
86.001652
 30
0.0
 10
138.832274
 20
86.364992
 30
0.0
 10
138.451294
 20
86.432022
 30
0.0
  0
LWPOLYLINE
  5
1ba
100
AcDbEntity
  8
0
 62
7
100
AcDbPolyline
 90
3
 70
0
 10
136.945004
 20
34.498522
 30
0.0
 10
136.945004
 20
73.852562
 30
0.0
 10
139.019234
 20
85.620672
 30
0.0
  0
LWPOLYLINE
  5
1bb
100
AcDbEntity
  8
0
 62
7
100
AcDbPolyline
 90
1
 70
1
 10
138.451294
 20
86.432022
 30
0.0
  0
LWPOLYLINE
  5
1bc
100
AcDbEntity
  8
0
 62
7
100
AcDbPolyline
 90
4
 70
1
 10
79.442828
 20
51.083736
 30
0.0
 10
89.442828
 20
51.083736
 30
0.0
 10
89.442828
 20
41.083736
 30
0.0
 10
79.442828
 20
41.083736
 30
0.0
  0
SPLINE
  5
1bd
100
AcDbEntity
  8
0
 62
7
100
AcDbSpline
 70
8
 71
3
 72
8
 73
4
 74
0
 40
0
 40
0
 40
0
 40
0
 40
1
 40
1
 40
1
 40
1
 10
363.867417
 20
111.975374
 30
0.0
 10
363.867417
 20
111.423077
 30
0.0
 10
364.315120
 20
110.975340
 30
0.0
 10
364.867417
 20
110.975298
 30
0.0
  0
LWPOLYLINE
  5
1be
100
AcDbEntity
  8
0
 62
7
100
AcDbPolyline
 90
2
 70
0
 10
363.867417
 20
113.922644
 30
0.0
 10
363.867417
 20
111.975374
 30
0.0
  0
SPLINE
  5
1bf
100
AcDbEntity
  8
0
 62
7
100
AcDbSpline
 70
8
 71
3
 72
8
 73
4
 74
0
 40
0
 40
0
 40
0
 40
0
 40
1
 40
1
 40
1
 40
1
 10
402.629547
 20
110.972448
 30
0.0
 10
403.181844
 20
110.972407
 30
0.0
 10
403.629547
 20
110.524670
 30
0.0
 10
403.629547
 20
109.972373
 30
0.0
  0
LWPOLYLINE
  5
1c0
100
AcDbEntity
  8
0
 62
7
100
AcDbPolyline
 90
2
 70
0
 10
364.867417
 20
110.975298
 30
0.0
 10
402.629547
 20
110.972448
 30
0.0
  0
SPLINE
  5
1c1
100
AcDbEntity
  8
0
 62
7
100
AcDbSpline
 70
8
 71
3
 72
8
 73
4
 74
0
 40
0
 40
0
 40
0
 40
0
 40
1
 40
1
 40
1
 40
1
 10
403.629547
 20
75.640293
 30
0.0
 10
403.629547
 20
75.375076
 30
0.0
 10
403.734904
 20
75.120722
 30
0.0
 10
403.922440
 20
74.933186
 30
0.0
  0
SPLINE
  5
1c2
100
AcDbEntity
  8
0
 62
7
100
AcDbSpline
 70
8
 71
3
 72
8
 73
4
 74
0
 40
0
 40
0
 40
0
 40
0
 40
1
 40
1
 40
1
 40
1
 10
403.922440
 20
74.933186
 30
0.0
 10
404.109977
 20
74.745649
 30
0.0
 10
404.364331
 20
74.640293
 30
0.0
 10
404.629547
 20
74.640293
 30
0.0
  0
LWPOLYLINE
  5
1c3
100
AcDbEntity
  8
0
 62
7
100
AcDbPolyline
 90
2
 70
0
 10
403.629547
 20
109.972373
 30
0.0
 10
403.629547
 20
75.640293
 30
0.0
  0
SPLINE
  5
1c4
100
AcDbEntity
  8
0
 62
7
100
AcDbSpline
 70
8
 71
3
 72
8
 73
4
 74
0
 40
0
 40
0
 40
0
 40
0
 40
1
 40
1
 40
1
 40
1
 10
423.114887
 20
74.640293
 30
0.0
 10
423.667168
 20
74.640298
 30
0.0
 10
424.114877
 20
75.088012
 30
0.0
 10
424.114877
 20
75.640293
 30
0.0
  0
LWPOLYLINE
  5
1c5
100
AcDbEntity
  8
0
 62
7
100
AcDbPolyline
 90
2
 70
0
 10
404.629547
 20
74.640293
 30
0.0
 10
423.114887
 20
74.640293
 30
0.0
  0
SPLINE
  5
1c6
100
AcDbEntity
  8
0
 62
7
100
AcDbSpline
 70
8
 71
3
 72
8
 73
4
 74
0
 40
0
 40
0
 40
0
 40
0
 40
1
 40
1
 40
1
 40
1
 10
424.114877
 20
109.971223
 30
0.0
 10
424.114877
 20
110.236434
 30
0.0
 10
424.220236
 20
110.490782
 30
0.0
 10
424.407774
 20
110.678309
 30
0.0
  0
SPLINE
  5
1c7
100
AcDbEntity
  8
0
 62
7
100
AcDbSpline
 70
8
 71
3
 72
8
 73
4
 74
0
 40
0
 40
0
 40
0
 40
0
 40
1
 40
1
 40
1
 40
1
 10
424.407774
 20
110.678309
 30
0.0
 10
424.595312
 20
110.865836
 30
0.0
 10
424.849666
 20
110.971180
 30
0.0
 10
425.114877
 20
110.971164
 30
0.0
  0
LWPOLYLINE
  5
1c8
100
AcDbEntity
  8
0
 62
7
100
AcDbPolyline
 90
2
 70
0
 10
424.114877
 20
75.640293
 30
0.0
 10
424.114877
 20
109.971223
 30
0.0
  0
SPLINE
  5
1c9
100
AcDbEntity
  8
0
 62
7
100
AcDbSpline
 70
8
 71
3
 72
8
 73
4
 74
0
 40
0
 40
0
 40
0
 40
0
 40
1
 40
1
 40
1
 40
1
 10
430.773667
 20
110.970832
 30
0.0
 10
431.038791
 20
110.970817
 30
0.0
 10
431.293035
 20
110.865413
 30
0.0
 10
431.480400
 20
110.677837
 30
0.0
  0
SPLINE
  5
1ca
100
AcDbEntity
  8
0
 62
7
100
AcDbSpline
 70
8
 71
3
 72
8
 73
4
 74
0
 40
0
 40
0
 40
0
 40
0
 40
1
 40
1
 40
1
 40
1
 10
431.480400
 20
110.677837
 30
0.0
 10
431.667765
 20
110.490260
 30
0.0
 10
431.772882
 20
110.235897
 30
0.0
 10
431.772597
 20
109.970774
 30
0.0
  0
LWPOLYLINE
  5
1cb
100
AcDbEntity
  8
0
 62
7
100
AcDbPolyline
 90
2
 70
0
 10
425.114877
 20
110.971164
 30
0.0
 10
430.773667
 20
110.970832
 30
0.0
  0
SPLINE
  5
1cc
100
AcDbEntity
  8
0
 62
7
100
AcDbSpline
 70
8
 71
3
 72
8
 73
4
 74
0
 40
0
 40
0
 40
0
 40
0
 40
1
 40
1
 40
1
 40
1
 10
431.667507
 20
12.051076
 30
0.0
 10
431.666916
 20
11.498553
 30
0.0
 10
431.218950
 20
11.050900
 30
0.0
 10
430.666427
 20
11.050696
 30
0.0
  0
LWPOLYLINE
  5
1cd
100
AcDbEntity
  8
0
 62
7
100
AcDbPolyline
 90
2
 70
0
 10
431.772597
 20
109.970774
 30
0.0
 10
431.667507
 20
12.051076
 30
0.0
  0
SPLINE
  5
1ce
100
AcDbEntity
  8
0
 62
7
100
AcDbSpline
 70
8
 71
3
 72
8
 73
4
 74
0
 40
0
 40
0
 40
0
 40
0
 40
1
 40
1
 40
1
 40
1
 10
416.762137
 20
11.045696
 30
0.0
 10
416.142971
 20
11.045463
 30
0.0
 10
415.570590
 20
10.716159
 30
0.0
 10
415.259177
 20
10.181006
 30
0.0
  0
LWPOLYLINE
  5
1cf
100
AcDbEntity
  8
0
 62
7
100
AcDbPolyline
 90
2
 70
0
 10
430.666427
 20
11.050696
 30
0.0
 10
416.762137
 20
11.045696
 30
0.0
  0
SPLINE
  5
1d0
100
AcDbEntity
  8
0
 62
7
100
AcDbSpline
 70
8
 71
3
 72
8
 73
4
 74
0
 40
0
 40
0
 40
0
 40
0
 40
1
 40
1
 40
1
 40
1
 10
413.462357
 20
7.093226
 30
0.0
 10
413.184577
 20
6.615876
 30
0.0
 10
412.572307
 20
6.453876
 30
0.0
 10
412.094987
 20
6.731696
 30
0.0
  0
SPLINE
  5
1d1
100
AcDbEntity
  8
0
 62
7
100
AcDbSpline
 70
8
 71
3
 72
8
 73
4
 74
0
 40
0
 40
0
 40
0
 40
0
 40
1
 40
1
 40
1
 40
1
 10
412.094987
 20
6.731696
 30
0.0
 10
410.270167
 20
7.793856
 30
0.0
 10
405.985937
 20
10.291586
 30
0.0
 10
403.467427
 20
11.792916
 30
0.0
  0
SPLINE
  5
1d2
100
AcDbEntity
  8
0
 62
7
100
AcDbSpline
 70
8
 71
3
 72
8
 73
4
 74
0
 40
0
 40
0
 40
0
 40
0
 40
1
 40
1
 40
1
 40
1
 10
403.467427
 20
11.792916
 30
0.0
 10
402.993077
 20
12.075686
 30
0.0
 10
402.226947
 20
12.539206
 30
0.0
 10
401.749237
 20
12.816336
 30
0.0
  0
SPLINE
  5
1d3
100
AcDbEntity
  8
0
 62
7
100
AcDbSpline
 70
8
 71
3
 72
8
 73
4
 74
0
 40
0
 40
0
 40
0
 40
0
 40
1
 40
1
 40
1
 40
1
 10
401.749237
 20
12.816336
 30
0.0
 10
396.932157
 20
15.610866
 30
0.0
 10
391.731297
 20
17.695556
 30
0.0
 10
386.798387
 20
19.095806
 30
0.0
  0
SPLINE
  5
1d4
100
AcDbEntity
  8
0
 62
7
100
AcDbSpline
 70
8
 71
3
 72
8
 73
4
 74
0
 40
0
 40
0
 40
0
 40
0
 40
1
 40
1
 40
1
 40
1
 10
386.798387
 20
19.095806
 30
0.0
 10
386.267107
 20
19.246616
 30
0.0
 10
385.402107
 20
19.478296
 30
0.0
 10
384.866767
 20
19.614006
 30
0.0
  0
SPLINE
  5
1d5
100
AcDbEntity
  8
0
 62
7
100
AcDbSpline
 70
8
 71
3
 72
8
 73
4
 74
0
 40
0
 40
0
 40
0
 40
0
 40
1
 40
1
 40
1
 40
1
 10
384.866767
 20
19.614006
 30
0.0
 10
379.484947
 20
20.978371
 30
0.0
 10
373.978637
 20
21.727749
 30
0.0
 10
368.828457
 20
21.830359
 30
0.0
  0
SPLINE
  5
1d6
100
AcDbEntity
  8
0
 62
7
100
AcDbSpline
 70
8
 71
3
 72
8
 73
4
 74
0
 40
0
 40
0
 40
0
 40
0
 40
1
 40
1
 40
1
 40
1
 10
368.828457
 20
21.830359
 30
0.0
 10
368.276287
 20
21.841359
 30
0.0
 10
367.380837
 20
21.844719
 30
0.0
 10
366.828557
 20
21.846739
 30
0.0
  0
SPLINE
  5
1d7
100
AcDbEntity
  8
0
 62
7
100
AcDbSpline
 70
8
 71
3
 72
8
 73
4
 74
0
 40
0
 40
0
 40
0
 40
0
 40
1
 40
1
 40
1
 40
1
 10
366.828557
 20
21.846739
 30
0.0
 10
363.614897
 20
21.858479
 30
0.0
 10
358.871167
 20
21.851939
 30
0.0
 10
356.824607
 20
21.848139
 30
0.0
  0
SPLINE
  5
1d8
100
AcDbEntity
  8
0
 62
7
100
AcDbSpline
 70
8
 71
3
 72
8
 73
4
 74
0
 40
0
 40
0
 40
0
 40
0
 40
1
 40
1
 40
1
 40
1
 10
356.824607
 20
21.848139
 30
0.0
 10
356.272337
 20
21.847139
 30
0.0
 10
355.824767
 20
22.293841
 30
0.0
 10
355.824927
 20
22.846126
 30
0.0
  0
LWPOLYLINE
  5
1d9
100
AcDbEntity
  8
0
 62
7
100
AcDbPolyline
 90
2
 70
0
 10
415.259177
 20
10.181006
 30
0.0
 10
413.462357
 20
7.093226
 30
0.0
  0
SPLINE
  5
1da
100
AcDbEntity
  8
0
 62
7
100
AcDbSpline
 70
8
 71
3
 72
8
 73
4
 74
0
 40
0
 40
0
 40
0
 40
0
 40
1
 40
1
 40
1
 40
1
 10
355.827927
 20
34.596126
 30
0.0
 10
355.828004
 20
34.861315
 30
0.0
 10
355.722712
 20
35.115670
 30
0.0
 10
355.535222
 20
35.303215
 30
0.0
  0
SPLINE
  5
1db
100
AcDbEntity
  8
0
 62
7
100
AcDbSpline
 70
8
 71
3
 72
8
 73
4
 74
0
 40
0
 40
0
 40
0
 40
0
 40
1
 40
1
 40
1
 40
1
 10
355.535222
 20
35.303215
 30
0.0
 10
355.347731
 20
35.490760
 30
0.0
 10
355.093407
 20
35.596126
 30
0.0
 10
354.828217
 20
35.596126
 30
0.0
  0
LWPOLYLINE
  5
1dc
100
AcDbEntity
  8
0
 62
7
100
AcDbPolyline
 90
2
 70
0
 10
355.824927
 20
22.846126
 30
0.0
 10
355.827927
 20
34.596126
 30
0.0
  0
SPLINE
  5
1dd
100
AcDbEntity
  8
0
 62
7
100
AcDbSpline
 70
8
 71
3
 72
8
 73
4
 74
0
 40
0
 40
0
 40
0
 40
0
 40
1
 40
1
 40
1
 40
1
 10
342.396577
 20
35.596126
 30
0.0
 10
341.730116
 20
35.596126
 30
0.0
 10
341.063858
 20
35.572812
 30
0.0
 10
340.399027
 20
35.526226
 30
0.0
  0
LWPOLYLINE
  5
1de
100
AcDbEntity
  8
0
 62
7
100
AcDbPolyline
 90
2
 70
0
 10
354.828217
 20
35.596126
 30
0.0
 10
342.396577
 20
35.596126
 30
0.0
  0
SPLINE
  5
1df
100
AcDbEntity
  8
0
 62
7
100
AcDbSpline
 70
8
 71
3
 72
8
 73
4
 74
0
 40
0
 40
0
 40
0
 40
0
 40
1
 40
1
 40
1
 40
1
 10
329.015227
 20
34.728530
 30
0.0
 10
328.760277
 20
34.710665
 30
0.0
 10
328.524802
 20
34.585715
 30
0.0
 10
328.367086
 20
34.384607
 30
0.0
  0
SPLINE
  5
1e0
100
AcDbEntity
  8
0
 62
7
100
AcDbSpline
 70
8
 71
3
 72
8
 73
4
 74
0
 40
0
 40
0
 40
0
 40
0
 40
1
 40
1
 40
1
 40
1
 10
328.367086
 20
34.384607
 30
0.0
 10
328.209370
 20
34.183499
 30
0.0
 10
328.144153
 20
33.925027
 30
0.0
 10
328.187577
 20
33.673168
 30
0.0
  0
LWPOLYLINE
  5
1e1
100
AcDbEntity
  8
0
 62
7
100
AcDbPolyline
 90
2
 70
0
 10
340.399027
 20
35.526226
 30
0.0
 10
329.015227
 20
34.728530
 30
0.0
  0
SPLINE
  5
1e2
100
AcDbEntity
  8
0
 62
7
100
AcDbSpline
 70
8
 71
3
 72
8
 73
4
 74
0
 40
0
 40
0
 40
0
 40
0
 40
1
 40
1
 40
1
 40
1
 10
328.531357
 20
31.679248
 30
0.0
 10
328.625293
 20
31.134414
 30
0.0
 10
328.260916
 20
30.616214
 30
0.0
 10
327.716427
 20
30.520296
 30
0.0
  0
LWPOLYLINE
  5
1e3
100
AcDbEntity
  8
0
 62
7
100
AcDbPolyline
 90
2
 70
0
 10
328.187577
 20
33.673168
 30
0.0
 10
328.531357
 20
31.679248
 30
0.0
  0
SPLINE
  5
1e4
100
AcDbEntity
  8
0
 62
7
100
AcDbSpline
 70
8
 71
3
 72
8
 73
4
 74
0
 40
0
 40
0
 40
0
 40
0
 40
1
 40
1
 40
1
 40
1
 10
306.104067
 20
26.712980
 30
0.0
 10
305.560156
 20
26.617164
 30
0.0
 10
305.041553
 20
26.980411
 30
0.0
 10
304.945727
 20
27.524321
 30
0.0
  0
LWPOLYLINE
  5
1e5
100
AcDbEntity
  8
0
 62
7
100
AcDbPolyline
 90
2
 70
0
 10
327.716427
 20
30.520296
 30
0.0
 10
306.104067
 20
26.712980
 30
0.0
  0
SPLINE
  5
1e6
100
AcDbEntity
  8
0
 62
7
100
AcDbSpline
 70
8
 71
3
 72
8
 73
4
 74
0
 40
0
 40
0
 40
0
 40
0
 40
1
 40
1
 40
1
 40
1
 10
304.249767
 20
31.474585
 30
0.0
 10
304.149403
 20
32.044256
 30
0.0
 10
303.654701
 20
32.459764
 30
0.0
 10
303.076257
 20
32.460236
 30
0.0
  0
LWPOLYLINE
  5
1e7
100
AcDbEntity
  8
0
 62
7
100
AcDbPolyline
 90
2
 70
0
 10
304.945727
 20
27.524321
 30
0.0
 10
304.249767
 20
31.474585
 30
0.0
  0
SPLINE
  5
1e8
100
AcDbEntity
  8
0
 62
7
100
AcDbSpline
 70
8
 71
3
 72
8
 73
4
 74
0
 40
0
 40
0
 40
0
 40
0
 40
1
 40
1
 40
1
 40
1
 10
297.740327
 20
32.464636
 30
0.0
 10
297.187910
 20
32.465087
 30
0.0
 10
296.740327
 20
32.913036
 30
0.0
 10
296.740327
 20
33.465454
 30
0.0
  0
LWPOLYLINE
  5
1e9
100
AcDbEntity
  8
0
 62
7
100
AcDbPolyline
 90
2
 70
0
 10
303.076257
 20
32.460236
 30
0.0
 10
297.740327
 20
32.464636
 30
0.0
  0
SPLINE
  5
1ea
100
AcDbEntity
  8
0
 62
7
100
AcDbSpline
 70
8
 71
3
 72
8
 73
4
 74
0
 40
0
 40
0
 40
0
 40
0
 40
1
 40
1
 40
1
 40
1
 10
296.740327
 20
72.883284
 30
0.0
 10
296.740328
 20
73.548685
 30
0.0
 10
296.682359
 20
74.212822
 30
0.0
 10
296.567077
 20
74.868161
 30
0.0
  0
LWPOLYLINE
  5
1eb
100
AcDbEntity
  8
0
 62
7
100
AcDbPolyline
 90
2
 70
0
 10
296.740327
 20
33.465454
 30
0.0
 10
296.740327
 20
72.883284
 30
0.0
  0
SPLINE
  5
1ec
100
AcDbEntity
  8
0
 62
7
100
AcDbSpline
 70
8
 71
3
 72
8
 73
4
 74
0
 40
0
 40
0
 40
0
 40
0
 40
1
 40
1
 40
1
 40
1
 10
294.485847
 20
86.699187
 30
0.0
 10
294.390155
 20
87.243159
 30
0.0
 10
294.753471
 20
87.761738
 30
0.0
 10
295.297417
 20
87.857580
 30
0.0
  0
LWPOLYLINE
  5
1ed
100
AcDbEntity
  8
0
 62
7
100
AcDbPolyline
 90
2
 70
0
 10
296.567077
 20
74.868161
 30
0.0
 10
294.485847
 20
86.699187
 30
0.0
  0
SPLINE
  5
1ee
100
AcDbEntity
  8
0
 62
7
100
AcDbSpline
 70
8
 71
3
 72
8
 73
4
 74
0
 40
0
 40
0
 40
0
 40
0
 40
1
 40
1
 40
1
 40
1
 10
295.755497
 20
87.938290
 30
0.0
 10
296.325056
 20
88.038640
 30
0.0
 10
296.740327
 20
88.533474
 30
0.0
 10
296.740327
 20
89.111806
 30
0.0
  0
LWPOLYLINE
  5
1ef
100
AcDbEntity
  8
0
 62
7
100
AcDbPolyline
 90
2
 70
0
 10
295.297417
 20
87.857580
 30
0.0
 10
295.755497
 20
87.938290
 30
0.0
  0
SPLINE
  5
1f0
100
AcDbEntity
  8
0
 62
7
100
AcDbSpline
 70
8
 71
3
 72
8
 73
4
 74
0
 40
0
 40
0
 40
0
 40
0
 40
1
 40
1
 40
1
 40
1
 10
296.740327
 20
109.871566
 30
0.0
 10
296.740327
 20
110.423865
 30
0.0
 10
297.188027
 20
110.871607
 30
0.0
 10
297.740327
 20
110.871659
 30
0.0
  0
LWPOLYLINE
  5
1f1
100
AcDbEntity
  8
0
 62
7
100
AcDbPolyline
 90
2
 70
0
 10
296.740327
 20
89.111806
 30
0.0
 10
296.740327
 20
109.871566
 30
0.0
  0
SPLINE
  5
1f2
100
AcDbEntity
  8
0
 62
7
100
AcDbSpline
 70
8
 71
3
 72
8
 73
4
 74
0
 40
0
 40
0
 40
0
 40
0
 40
1
 40
1
 40
1
 40
1
 10
338.740327
 20
110.875469
 30
0.0
 10
339.296627
 20
110.875521
 30
0.0
 10
339.751424
 20
111.319124
 30
0.0
 10
339.765337
 20
111.875249
 30
0.0
  0
LWPOLYLINE
  5
1f3
100
AcDbEntity
  8
0
 62
7
100
AcDbPolyline
 90
2
 70
0
 10
297.740327
 20
110.871659
 30
0.0
 10
338.740327
 20
110.875469
 30
0.0
  0
SPLINE
  5
1f4
100
AcDbEntity
  8
0
 62
7
100
AcDbSpline
 70
8
 71
3
 72
8
 73
4
 74
0
 40
0
 40
0
 40
0
 40
0
 40
1
 40
1
 40
1
 40
1
 10
339.816537
 20
113.922535
 30
0.0
 10
339.830450
 20
114.478650
 30
0.0
 10
340.285258
 20
114.922234
 30
0.0
 10
340.841547
 20
114.922249
 30
0.0
  0
LWPOLYLINE
  5
1f5
100
AcDbEntity
  8
0
 62
7
100
AcDbPolyline
 90
2
 70
0
 10
339.765337
 20
111.875249
 30
0.0
 10
339.816537
 20
113.922535
 30
0.0
  0
SPLINE
  5
1f6
100
AcDbEntity
  8
0
 62
7
100
AcDbSpline
 70
8
 71
3
 72
8
 73
4
 74
0
 40
0
 40
0
 40
0
 40
0
 40
1
 40
1
 40
1
 40
1
 10
362.866977
 20
114.922854
 30
0.0
 10
363.132191
 20
114.922862
 30
0.0
 10
363.386545
 20
114.817511
 30
0.0
 10
363.574082
 20
114.629979
 30
0.0
  0
SPLINE
  5
1f7
100
AcDbEntity
  8
0
 62
7
100
AcDbSpline
 70
8
 71
3
 72
8
 73
4
 74
0
 40
0
 40
0
 40
0
 40
0
 40
1
 40
1
 40
1
 40
1
 10
363.574082
 20
114.629979
 30
0.0
 10
363.761619
 20
114.442447
 30
0.0
 10
363.866977
 20
114.188096
 30
0.0
 10
363.866977
 20
113.922882
 30
0.0
  0
LWPOLYLINE
  5
1f8
100
AcDbEntity
  8
0
 62
7
100
AcDbPolyline
 90
2
 70
0
 10
340.841547
 20
114.922249
 30
0.0
 10
362.866977
 20
114.922854
 30
0.0
  0
SPLINE
  5
1f9
100
AcDbEntity
  8
0
 62
7
100
AcDbSpline
 70
8
 71
3
 72
8
 73
4
 74
0
 40
0
 40
0
 40
0
 40
0
 40
1
 40
1
 40
1
 40
1
 10
329.407377
 20
41.008306
 30
0.0
 10
329.989437
 20
41.008306
 30
0.0
 10
330.458477
 20
40.539266
 30
0.0
 10
330.458477
 20
39.957206
 30
0.0
  0
SPLINE
  5
1fa
100
AcDbEntity
  8
0
 62
7
100
AcDbSpline
 70
8
 71
3
 72
8
 73
4
 74
0
 40
0
 40
0
 40
0
 40
0
 40
1
 40
1
 40
1
 40
1
 10
330.458477
 20
39.957206
 30
0.0
 10
330.458477
 20
39.375156
 30
0.0
 10
329.985907
 20
38.905586
 30
0.0
 10
329.407377
 20
38.905586
 30
0.0
  0
SPLINE
  5
1fb
100
AcDbEntity
  8
0
 62
7
100
AcDbSpline
 70
8
 71
3
 72
8
 73
4
 74
0
 40
0
 40
0
 40
0
 40
0
 40
1
 40
1
 40
1
 40
1
 10
329.407377
 20
38.905586
 30
0.0
 10
328.825327
 20
38.905586
 30
0.0
 10
328.356277
 20
39.375156
 30
0.0
 10
328.356277
 20
39.957206
 30
0.0
  0
SPLINE
  5
1fc
100
AcDbEntity
  8
0
 62
7
100
AcDbSpline
 70
8
 71
3
 72
8
 73
4
 74
0
 40
0
 40
0
 40
0
 40
0
 40
1
 40
1
 40
1
 40
1
 10
328.356277
 20
39.957206
 30
0.0
 10
328.356277
 20
40.539266
 30
0.0
 10
328.825327
 20
41.008306
 30
0.0
 10
329.407377
 20
41.008306
 30
0.0
  0
LWPOLYLINE
  5
1fd
100
AcDbEntity
  8
0
 62
7
100
AcDbPolyline
 90
2
 70
0
 10
363.866977
 20
113.922882
 30
0.0
 10
363.867417
 20
113.922644
 30
0.0
  0
SPLINE
  5
1fe
100
AcDbEntity
  8
0
 62
7
100
AcDbSpline
 70
8
 71
3
 72
8
 73
4
 74
0
 40
0
 40
0
 40
0
 40
0
 40
1
 40
1
 40
1
 40
1
 10
340.904357
 20
41.845976
 30
0.0
 10
341.486417
 20
41.845976
 30
0.0
 10
341.955447
 20
41.376936
 30
0.0
 10
341.955447
 20
40.794876
 30
0.0
  0
SPLINE
  5
1ff
100
AcDbEntity
  8
0
 62
7
100
AcDbSpline
 70
8
 71
3
 72
8
 73
4
 74
0
 40
0
 40
0
 40
0
 40
0
 40
1
 40
1
 40
1
 40
1
 10
341.955447
 20
40.794876
 30
0.0
 10
341.955447
 20
40.212826
 30
0.0
 10
341.482887
 20
39.743266
 30
0.0
 10
340.904357
 20
39.743266
 30
0.0
  0
SPLINE
  5
200
100
AcDbEntity
  8
0
 62
7
100
AcDbSpline
 70
8
 71
3
 72
8
 73
4
 74
0
 40
0
 40
0
 40
0
 40
0
 40
1
 40
1
 40
1
 40
1
 10
340.904357
 20
39.743266
 30
0.0
 10
340.322307
 20
39.743266
 30
0.0
 10
339.853257
 20
40.212826
 30
0.0
 10
339.853257
 20
40.794876
 30
0.0
  0
SPLINE
  5
201
100
AcDbEntity
  8
0
 62
7
100
AcDbSpline
 70
8
 71
3
 72
8
 73
4
 74
0
 40
0
 40
0
 40
0
 40
0
 40
1
 40
1
 40
1
 40
1
 10
339.853257
 20
40.794876
 30
0.0
 10
339.853257
 20
41.376936
 30
0.0
 10
340.322307
 20
41.845976
 30
0.0
 10
340.904357
 20
41.845976
 30
0.0
  0
LWPOLYLINE
  5
202
100
AcDbEntity
  8
0
 62
7
100
AcDbPolyline
 90
1
 70
1
 10
329.407377
 20
41.008306
 30
0.0
  0
SPLINE
  5
203
100
AcDbEntity
  8
0
 62
7
100
AcDbSpline
 70
8
 71
3
 72
8
 73
4
 74
0
 40
0
 40
0
 40
0
 40
0
 40
1
 40
1
 40
1
 40
1
 10
343.665937
 20
75.426876
 30
0.0
 10
344.247997
 20
75.426876
 30
0.0
 10
344.717037
 20
74.957826
 30
0.0
 10
344.717037
 20
74.375776
 30
0.0
  0
SPLINE
  5
204
100
AcDbEntity
  8
0
 62
7
100
AcDbSpline
 70
8
 71
3
 72
8
 73
4
 74
0
 40
0
 40
0
 40
0
 40
0
 40
1
 40
1
 40
1
 40
1
 10
344.717037
 20
74.375776
 30
0.0
 10
344.717037
 20
73.793716
 30
0.0
 10
344.244467
 20
73.324676
 30
0.0
 10
343.665937
 20
73.324676
 30
0.0
  0
SPLINE
  5
205
100
AcDbEntity
  8
0
 62
7
100
AcDbSpline
 70
8
 71
3
 72
8
 73
4
 74
0
 40
0
 40
0
 40
0
 40
0
 40
1
 40
1
 40
1
 40
1
 10
343.665937
 20
73.324676
 30
0.0
 10
343.083887
 20
73.324676
 30
0.0
 10
342.614847
 20
73.793716
 30
0.0
 10
342.614847
 20
74.375776
 30
0.0
  0
SPLINE
  5
206
100
AcDbEntity
  8
0
 62
7
100
AcDbSpline
 70
8
 71
3
 72
8
 73
4
 74
0
 40
0
 40
0
 40
0
 40
0
 40
1
 40
1
 40
1
 40
1
 10
342.614847
 20
74.375776
 30
0.0
 10
342.614847
 20
74.957826
 30
0.0
 10
343.083887
 20
75.426876
 30
0.0
 10
343.665937
 20
75.426876
 30
0.0
  0
LWPOLYLINE
  5
207
100
AcDbEntity
  8
0
 62
7
100
AcDbPolyline
 90
1
 70
1
 10
340.904357
 20
41.845976
 30
0.0
  0
SPLINE
  5
208
100
AcDbEntity
  8
0
 62
7
100
AcDbSpline
 70
8
 71
3
 72
8
 73
4
 74
0
 40
0
 40
0
 40
0
 40
0
 40
1
 40
1
 40
1
 40
1
 10
322.401607
 20
106.830646
 30
0.0
 10
322.983667
 20
106.830646
 30
0.0
 10
323.452707
 20
106.361596
 30
0.0
 10
323.452707
 20
105.779546
 30
0.0
  0
SPLINE
  5
209
100
AcDbEntity
  8
0
 62
7
100
AcDbSpline
 70
8
 71
3
 72
8
 73
4
 74
0
 40
0
 40
0
 40
0
 40
0
 40
1
 40
1
 40
1
 40
1
 10
323.452707
 20
105.779546
 30
0.0
 10
323.452707
 20
105.197486
 30
0.0
 10
322.980137
 20
104.728446
 30
0.0
 10
322.401607
 20
104.728446
 30
0.0
  0
SPLINE
  5
20a
100
AcDbEntity
  8
0
 62
7
100
AcDbSpline
 70
8
 71
3
 72
8
 73
4
 74
0
 40
0
 40
0
 40
0
 40
0
 40
1
 40
1
 40
1
 40
1
 10
322.401607
 20
104.728446
 30
0.0
 10
321.819557
 20
104.728446
 30
0.0
 10
321.350507
 20
105.197486
 30
0.0
 10
321.350507
 20
105.779546
 30
0.0
  0
SPLINE
  5
20b
100
AcDbEntity
  8
0
 62
7
100
AcDbSpline
 70
8
 71
3
 72
8
 73
4
 74
0
 40
0
 40
0
 40
0
 40
0
 40
1
 40
1
 40
1
 40
1
 10
321.350507
 20
105.779546
 30
0.0
 10
321.350507
 20
106.361596
 30
0.0
 10
321.819557
 20
106.830646
 30
0.0
 10
322.401607
 20
106.830646
 30
0.0
  0
LWPOLYLINE
  5
20c
100
AcDbEntity
  8
0
 62
7
100
AcDbPolyline
 90
1
 70
1
 10
343.665937
 20
75.426876
 30
0.0
  0
SPLINE
  5
20d
100
AcDbEntity
  8
0
 62
7
100
AcDbSpline
 70
8
 71
3
 72
8
 73
4
 74
0
 40
0
 40
0
 40
0
 40
0
 40
1
 40
1
 40
1
 40
1
 10
365.575717
 20
107.711726
 30
0.0
 10
366.157767
 20
107.711726
 30
0.0
 10
366.627327
 20
107.242676
 30
0.0
 10
366.627327
 20
106.660626
 30
0.0
  0
SPLINE
  5
20e
100
AcDbEntity
  8
0
 62
7
100
AcDbSpline
 70
8
 71
3
 72
8
 73
4
 74
0
 40
0
 40
0
 40
0
 40
0
 40
1
 40
1
 40
1
 40
1
 10
366.627327
 20
106.660626
 30
0.0
 10
366.627327
 20
106.078566
 30
0.0
 10
366.157767
 20
105.609526
 30
0.0
 10
365.575717
 20
105.609526
 30
0.0
  0
SPLINE
  5
20f
100
AcDbEntity
  8
0
 62
7
100
AcDbSpline
 70
8
 71
3
 72
8
 73
4
 74
0
 40
0
 40
0
 40
0
 40
0
 40
1
 40
1
 40
1
 40
1
 10
365.575717
 20
105.609526
 30
0.0
 10
364.993657
 20
105.609526
 30
0.0
 10
364.524617
 20
106.078566
 30
0.0
 10
364.524617
 20
106.660626
 30
0.0
  0
SPLINE
  5
210
100
AcDbEntity
  8
0
 62
7
100
AcDbSpline
 70
8
 71
3
 72
8
 73
4
 74
0
 40
0
 40
0
 40
0
 40
0
 40
1
 40
1
 40
1
 40
1
 10
364.524617
 20
106.660626
 30
0.0
 10
364.524617
 20
107.242676
 30
0.0
 10
364.997187
 20
107.711726
 30
0.0
 10
365.575717
 20
107.711726
 30
0.0
  0
LWPOLYLINE
  5
211
100
AcDbEntity
  8
0
 62
7
100
AcDbPolyline
 90
1
 70
1
 10
322.401607
 20
106.830646
 30
0.0
  0
SPLINE
  5
212
100
AcDbEntity
  8
0
 62
7
100
AcDbSpline
 70
8
 71
3
 72
8
 73
4
 74
0
 40
0
 40
0
 40
0
 40
0
 40
1
 40
1
 40
1
 40
1
 10
336.815197
 20
107.754526
 30
0.0
 10
337.397257
 20
107.754526
 30
0.0
 10
337.866297
 20
107.285486
 30
0.0
 10
337.866297
 20
106.703426
 30
0.0
  0
SPLINE
  5
213
100
AcDbEntity
  8
0
 62
7
100
AcDbSpline
 70
8
 71
3
 72
8
 73
4
 74
0
 40
0
 40
0
 40
0
 40
0
 40
1
 40
1
 40
1
 40
1
 10
337.866297
 20
106.703426
 30
0.0
 10
337.866297
 20
106.121366
 30
0.0
 10
337.397257
 20
105.652326
 30
0.0
 10
336.815197
 20
105.652326
 30
0.0
  0
SPLINE
  5
214
100
AcDbEntity
  8
0
 62
7
100
AcDbSpline
 70
8
 71
3
 72
8
 73
4
 74
0
 40
0
 40
0
 40
0
 40
0
 40
1
 40
1
 40
1
 40
1
 10
336.815197
 20
105.652326
 30
0.0
 10
336.233137
 20
105.652326
 30
0.0
 10
335.764097
 20
106.121366
 30
0.0
 10
335.764097
 20
106.703426
 30
0.0
  0
SPLINE
  5
215
100
AcDbEntity
  8
0
 62
7
100
AcDbSpline
 70
8
 71
3
 72
8
 73
4
 74
0
 40
0
 40
0
 40
0
 40
0
 40
1
 40
1
 40
1
 40
1
 10
335.764097
 20
106.703426
 30
0.0
 10
335.764097
 20
107.285486
 30
0.0
 10
336.236667
 20
107.754526
 30
0.0
 10
336.815197
 20
107.754526
 30
0.0
  0
LWPOLYLINE
  5
216
100
AcDbEntity
  8
0
 62
7
100
AcDbPolyline
 90
1
 70
1
 10
365.575717
 20
107.711726
 30
0.0
  0
SPLINE
  5
217
100
AcDbEntity
  8
0
 62
7
100
AcDbSpline
 70
8
 71
3
 72
8
 73
4
 74
0
 40
0
 40
0
 40
0
 40
0
 40
1
 40
1
 40
1
 40
1
 10
427.640657
 20
28.326906
 30
0.0
 10
428.222717
 20
28.326906
 30
0.0
 10
428.691757
 20
27.857866
 30
0.0
 10
428.691757
 20
27.275806
 30
0.0
  0
SPLINE
  5
218
100
AcDbEntity
  8
0
 62
7
100
AcDbSpline
 70
8
 71
3
 72
8
 73
4
 74
0
 40
0
 40
0
 40
0
 40
0
 40
1
 40
1
 40
1
 40
1
 10
428.691757
 20
27.275806
 30
0.0
 10
428.691757
 20
26.693756
 30
0.0
 10
428.219187
 20
26.224706
 30
0.0
 10
427.640657
 20
26.224706
 30
0.0
  0
SPLINE
  5
219
100
AcDbEntity
  8
0
 62
7
100
AcDbSpline
 70
8
 71
3
 72
8
 73
4
 74
0
 40
0
 40
0
 40
0
 40
0
 40
1
 40
1
 40
1
 40
1
 10
427.640657
 20
26.224706
 30
0.0
 10
427.058597
 20
26.224706
 30
0.0
 10
426.589567
 20
26.693756
 30
0.0
 10
426.589567
 20
27.275806
 30
0.0
  0
SPLINE
  5
21a
100
AcDbEntity
  8
0
 62
7
100
AcDbSpline
 70
8
 71
3
 72
8
 73
4
 74
0
 40
0
 40
0
 40
0
 40
0
 40
1
 40
1
 40
1
 40
1
 10
426.589567
 20
27.275806
 30
0.0
 10
426.589567
 20
27.857866
 30
0.0
 10
427.058597
 20
28.326906
 30
0.0
 10
427.640657
 20
28.326906
 30
0.0
  0
LWPOLYLINE
  5
21b
100
AcDbEntity
  8
0
 62
7
100
AcDbPolyline
 90
1
 70
1
 10
336.815197
 20
107.754526
 30
0.0
  0
SPLINE
  5
21c
100
AcDbEntity
  8
0
 62
7
100
AcDbSpline
 70
8
 71
3
 72
8
 73
4
 74
0
 40
0
 40
0
 40
0
 40
0
 40
1
 40
1
 40
1
 40
1
 10
427.640657
 20
107.750526
 30
0.0
 10
428.222717
 20
107.750526
 30
0.0
 10
428.691757
 20
107.281486
 30
0.0
 10
428.691757
 20
106.699426
 30
0.0
  0
SPLINE
  5
21d
100
AcDbEntity
  8
0
 62
7
100
AcDbSpline
 70
8
 71
3
 72
8
 73
4
 74
0
 40
0
 40
0
 40
0
 40
0
 40
1
 40
1
 40
1
 40
1
 10
428.691757
 20
106.699426
 30
0.0
 10
428.691757
 20
106.117376
 30
0.0
 10
428.222717
 20
105.648326
 30
0.0
 10
427.640657
 20
105.648326
 30
0.0
  0
SPLINE
  5
21e
100
AcDbEntity
  8
0
 62
7
100
AcDbSpline
 70
8
 71
3
 72
8
 73
4
 74
0
 40
0
 40
0
 40
0
 40
0
 40
1
 40
1
 40
1
 40
1
 10
427.640657
 20
105.648326
 30
0.0
 10
427.058597
 20
105.648326
 30
0.0
 10
426.589567
 20
106.117376
 30
0.0
 10
426.589567
 20
106.699426
 30
0.0
  0
SPLINE
  5
21f
100
AcDbEntity
  8
0
 62
7
100
AcDbSpline
 70
8
 71
3
 72
8
 73
4
 74
0
 40
0
 40
0
 40
0
 40
0
 40
1
 40
1
 40
1
 40
1
 10
426.589567
 20
106.699426
 30
0.0
 10
426.589567
 20
107.281486
 30
0.0
 10
427.062127
 20
107.750526
 30
0.0
 10
427.640657
 20
107.750526
 30
0.0
  0
LWPOLYLINE
  5
220
100
AcDbEntity
  8
0
 62
7
100
AcDbPolyline
 90
1
 70
1
 10
427.640657
 20
28.326906
 30
0.0
  0
SPLINE
  5
221
100
AcDbEntity
  8
0
 62
7
100
AcDbSpline
 70
8
 71
3
 72
8
 73
4
 74
0
 40
0
 40
0
 40
0
 40
0
 40
1
 40
1
 40
1
 40
1
 10
571.934421
 20
28.238782
 30
0.0
 10
572.516481
 20
28.238782
 30
0.0
 10
572.985519
 20
27.769742
 30
0.0
 10
572.985519
 20
27.187682
 30
0.0
  0
SPLINE
  5
222
100
AcDbEntity
  8
0
 62
7
100
AcDbSpline
 70
8
 71
3
 72
8
 73
4
 74
0
 40
0
 40
0
 40
0
 40
0
 40
1
 40
1
 40
1
 40
1
 10
572.985519
 20
27.187682
 30
0.0
 10
572.985519
 20
26.605632
 30
0.0
 10
572.512951
 20
26.136582
 30
0.0
 10
571.934421
 20
26.136582
 30
0.0
  0
SPLINE
  5
223
100
AcDbEntity
  8
0
 62
7
100
AcDbSpline
 70
8
 71
3
 72
8
 73
4
 74
0
 40
0
 40
0
 40
0
 40
0
 40
1
 40
1
 40
1
 40
1
 10
571.934421
 20
26.136582
 30
0.0
 10
571.352361
 20
26.136582
 30
0.0
 10
570.883323
 20
26.605632
 30
0.0
 10
570.883323
 20
27.187682
 30
0.0
  0
SPLINE
  5
224
100
AcDbEntity
  8
0
 62
7
100
AcDbSpline
 70
8
 71
3
 72
8
 73
4
 74
0
 40
0
 40
0
 40
0
 40
0
 40
1
 40
1
 40
1
 40
1
 10
570.883323
 20
27.187682
 30
0.0
 10
570.883323
 20
27.769742
 30
0.0
 10
571.352361
 20
28.238782
 30
0.0
 10
571.934421
 20
28.238782
 30
0.0
  0
LWPOLYLINE
  5
225
100
AcDbEntity
  8
0
 62
7
100
AcDbPolyline
 90
1
 70
1
 10
427.640657
 20
107.750526
 30
0.0
  0
SPLINE
  5
226
100
AcDbEntity
  8
0
 62
7
100
AcDbSpline
 70
8
 71
3
 72
8
 73
4
 74
0
 40
0
 40
0
 40
0
 40
0
 40
1
 40
1
 40
1
 40
1
 10
473.701136
 20
40.920182
 30
0.0
 10
474.283196
 20
40.920182
 30
0.0
 10
474.752246
 20
40.451142
 30
0.0
 10
474.752246
 20
39.869082
 30
0.0
  0
SPLINE
  5
227
100
AcDbEntity
  8
0
 62
7
100
AcDbSpline
 70
8
 71
3
 72
8
 73
4
 74
0
 40
0
 40
0
 40
0
 40
0
 40
1
 40
1
 40
1
 40
1
 10
474.752246
 20
39.869082
 30
0.0
 10
474.752246
 20
39.287032
 30
0.0
 10
474.279666
 20
38.817462
 30
0.0
 10
473.701136
 20
38.817462
 30
0.0
  0
SPLINE
  5
228
100
AcDbEntity
  8
0
 62
7
100
AcDbSpline
 70
8
 71
3
 72
8
 73
4
 74
0
 40
0
 40
0
 40
0
 40
0
 40
1
 40
1
 40
1
 40
1
 10
473.701136
 20
38.817462
 30
0.0
 10
473.119096
 20
38.817462
 30
0.0
 10
472.650036
 20
39.287032
 30
0.0
 10
472.650036
 20
39.869082
 30
0.0
  0
SPLINE
  5
229
100
AcDbEntity
  8
0
 62
7
100
AcDbSpline
 70
8
 71
3
 72
8
 73
4
 74
0
 40
0
 40
0
 40
0
 40
0
 40
1
 40
1
 40
1
 40
1
 10
472.650036
 20
39.869082
 30
0.0
 10
472.650036
 20
40.451142
 30
0.0
 10
473.119086
 20
40.920182
 30
0.0
 10
473.701136
 20
40.920182
 30
0.0
  0
LWPOLYLINE
  5
22a
100
AcDbEntity
  8
0
 62
7
100
AcDbPolyline
 90
1
 70
1
 10
571.934421
 20
28.238782
 30
0.0
  0
SPLINE
  5
22b
100
AcDbEntity
  8
0
 62
7
100
AcDbSpline
 70
8
 71
3
 72
8
 73
4
 74
0
 40
0
 40
0
 40
0
 40
0
 40
1
 40
1
 40
1
 40
1
 10
485.198111
 20
41.757852
 30
0.0
 10
485.780171
 20
41.757852
 30
0.0
 10
486.249201
 20
41.288812
 30
0.0
 10
486.249201
 20
40.706752
 30
0.0
  0
SPLINE
  5
22c
100
AcDbEntity
  8
0
 62
7
100
AcDbSpline
 70
8
 71
3
 72
8
 73
4
 74
0
 40
0
 40
0
 40
0
 40
0
 40
1
 40
1
 40
1
 40
1
 10
486.249201
 20
40.706752
 30
0.0
 10
486.249201
 20
40.124702
 30
0.0
 10
485.776641
 20
39.655142
 30
0.0
 10
485.198111
 20
39.655142
 30
0.0
  0
SPLINE
  5
22d
100
AcDbEntity
  8
0
 62
7
100
AcDbSpline
 70
8
 71
3
 72
8
 73
4
 74
0
 40
0
 40
0
 40
0
 40
0
 40
1
 40
1
 40
1
 40
1
 10
485.198111
 20
39.655142
 30
0.0
 10
484.616061
 20
39.655142
 30
0.0
 10
484.147011
 20
40.124702
 30
0.0
 10
484.147011
 20
40.706752
 30
0.0
  0
SPLINE
  5
22e
100
AcDbEntity
  8
0
 62
7
100
AcDbSpline
 70
8
 71
3
 72
8
 73
4
 74
0
 40
0
 40
0
 40
0
 40
0
 40
1
 40
1
 40
1
 40
1
 10
484.147011
 20
40.706752
 30
0.0
 10
484.147011
 20
41.288812
 30
0.0
 10
484.616061
 20
41.757852
 30
0.0
 10
485.198111
 20
41.757852
 30
0.0
  0
LWPOLYLINE
  5
22f
100
AcDbEntity
  8
0
 62
7
100
AcDbPolyline
 90
1
 70
1
 10
473.701136
 20
40.920182
 30
0.0
  0
SPLINE
  5
230
100
AcDbEntity
  8
0
 62
7
100
AcDbSpline
 70
8
 71
3
 72
8
 73
4
 74
0
 40
0
 40
0
 40
0
 40
0
 40
1
 40
1
 40
1
 40
1
 10
487.959691
 20
75.338756
 30
0.0
 10
488.541751
 20
75.338756
 30
0.0
 10
489.010791
 20
74.869706
 30
0.0
 10
489.010791
 20
74.287656
 30
0.0
  0
SPLINE
  5
231
100
AcDbEntity
  8
0
 62
7
100
AcDbSpline
 70
8
 71
3
 72
8
 73
4
 74
0
 40
0
 40
0
 40
0
 40
0
 40
1
 40
1
 40
1
 40
1
 10
489.010791
 20
74.287656
 30
0.0
 10
489.010791
 20
73.705596
 30
0.0
 10
488.538221
 20
73.236556
 30
0.0
 10
487.959691
 20
73.236556
 30
0.0
  0
SPLINE
  5
232
100
AcDbEntity
  8
0
 62
7
100
AcDbSpline
 70
8
 71
3
 72
8
 73
4
 74
0
 40
0
 40
0
 40
0
 40
0
 40
1
 40
1
 40
1
 40
1
 10
487.959691
 20
73.236556
 30
0.0
 10
487.377641
 20
73.236556
 30
0.0
 10
486.908601
 20
73.705596
 30
0.0
 10
486.908601
 20
74.287656
 30
0.0
  0
SPLINE
  5
233
100
AcDbEntity
  8
0
 62
7
100
AcDbSpline
 70
8
 71
3
 72
8
 73
4
 74
0
 40
0
 40
0
 40
0
 40
0
 40
1
 40
1
 40
1
 40
1
 10
486.908601
 20
74.287656
 30
0.0
 10
486.908601
 20
74.869706
 30
0.0
 10
487.377641
 20
75.338756
 30
0.0
 10
487.959691
 20
75.338756
 30
0.0
  0
LWPOLYLINE
  5
234
100
AcDbEntity
  8
0
 62
7
100
AcDbPolyline
 90
1
 70
1
 10
485.198111
 20
41.757852
 30
0.0
  0
SPLINE
  5
235
100
AcDbEntity
  8
0
 62
7
100
AcDbSpline
 70
8
 71
3
 72
8
 73
4
 74
0
 40
0
 40
0
 40
0
 40
0
 40
1
 40
1
 40
1
 40
1
 10
466.695376
 20
106.742522
 30
0.0
 10
467.277426
 20
106.742522
 30
0.0
 10
467.746476
 20
106.273472
 30
0.0
 10
467.746476
 20
105.691422
 30
0.0
  0
SPLINE
  5
236
100
AcDbEntity
  8
0
 62
7
100
AcDbSpline
 70
8
 71
3
 72
8
 73
4
 74
0
 40
0
 40
0
 40
0
 40
0
 40
1
 40
1
 40
1
 40
1
 10
467.746476
 20
105.691422
 30
0.0
 10
467.746476
 20
105.109362
 30
0.0
 10
467.273906
 20
104.640322
 30
0.0
 10
466.695376
 20
104.640322
 30
0.0
  0
SPLINE
  5
237
100
AcDbEntity
  8
0
 62
7
100
AcDbSpline
 70
8
 71
3
 72
8
 73
4
 74
0
 40
0
 40
0
 40
0
 40
0
 40
1
 40
1
 40
1
 40
1
 10
466.695376
 20
104.640322
 30
0.0
 10
466.113326
 20
104.640322
 30
0.0
 10
465.644266
 20
105.109362
 30
0.0
 10
465.644266
 20
105.691422
 30
0.0
  0
SPLINE
  5
238
100
AcDbEntity
  8
0
 62
7
100
AcDbSpline
 70
8
 71
3
 72
8
 73
4
 74
0
 40
0
 40
0
 40
0
 40
0
 40
1
 40
1
 40
1
 40
1
 10
465.644266
 20
105.691422
 30
0.0
 10
465.644266
 20
106.273472
 30
0.0
 10
466.113316
 20
106.742522
 30
0.0
 10
466.695376
 20
106.742522
 30
0.0
  0
LWPOLYLINE
  5
239
100
AcDbEntity
  8
0
 62
7
100
AcDbPolyline
 90
1
 70
1
 10
487.959691
 20
75.338756
 30
0.0
  0
SPLINE
  5
23a
100
AcDbEntity
  8
0
 62
7
100
AcDbSpline
 70
8
 71
3
 72
8
 73
4
 74
0
 40
0
 40
0
 40
0
 40
0
 40
1
 40
1
 40
1
 40
1
 10
509.869476
 20
107.623602
 30
0.0
 10
510.451526
 20
107.623602
 30
0.0
 10
510.921086
 20
107.154552
 30
0.0
 10
510.921086
 20
106.572502
 30
0.0
  0
SPLINE
  5
23b
100
AcDbEntity
  8
0
 62
7
100
AcDbSpline
 70
8
 71
3
 72
8
 73
4
 74
0
 40
0
 40
0
 40
0
 40
0
 40
1
 40
1
 40
1
 40
1
 10
510.921086
 20
106.572502
 30
0.0
 10
510.921086
 20
105.990442
 30
0.0
 10
510.451526
 20
105.521402
 30
0.0
 10
509.869476
 20
105.521402
 30
0.0
  0
SPLINE
  5
23c
100
AcDbEntity
  8
0
 62
7
100
AcDbSpline
 70
8
 71
3
 72
8
 73
4
 74
0
 40
0
 40
0
 40
0
 40
0
 40
1
 40
1
 40
1
 40
1
 10
509.869476
 20
105.521402
 30
0.0
 10
509.287416
 20
105.521402
 30
0.0
 10
508.818376
 20
105.990442
 30
0.0
 10
508.818376
 20
106.572502
 30
0.0
  0
SPLINE
  5
23d
100
AcDbEntity
  8
0
 62
7
100
AcDbSpline
 70
8
 71
3
 72
8
 73
4
 74
0
 40
0
 40
0
 40
0
 40
0
 40
1
 40
1
 40
1
 40
1
 10
508.818376
 20
106.572502
 30
0.0
 10
508.818376
 20
107.154552
 30
0.0
 10
509.290946
 20
107.623602
 30
0.0
 10
509.869476
 20
107.623602
 30
0.0
  0
LWPOLYLINE
  5
23e
100
AcDbEntity
  8
0
 62
7
100
AcDbPolyline
 90
1
 70
1
 10
466.695376
 20
106.742522
 30
0.0
  0
SPLINE
  5
23f
100
AcDbEntity
  8
0
 62
7
100
AcDbSpline
 70
8
 71
3
 72
8
 73
4
 74
0
 40
0
 40
0
 40
0
 40
0
 40
1
 40
1
 40
1
 40
1
 10
571.934421
 20
107.662402
 30
0.0
 10
572.516481
 20
107.662402
 30
0.0
 10
572.985519
 20
107.193362
 30
0.0
 10
572.985519
 20
106.611302
 30
0.0
  0
SPLINE
  5
240
100
AcDbEntity
  8
0
 62
7
100
AcDbSpline
 70
8
 71
3
 72
8
 73
4
 74
0
 40
0
 40
0
 40
0
 40
0
 40
1
 40
1
 40
1
 40
1
 10
572.985519
 20
106.611302
 30
0.0
 10
572.985519
 20
106.029252
 30
0.0
 10
572.516481
 20
105.560202
 30
0.0
 10
571.934421
 20
105.560202
 30
0.0
  0
SPLINE
  5
241
100
AcDbEntity
  8
0
 62
7
100
AcDbSpline
 70
8
 71
3
 72
8
 73
4
 74
0
 40
0
 40
0
 40
0
 40
0
 40
1
 40
1
 40
1
 40
1
 10
571.934421
 20
105.560202
 30
0.0
 10
571.352361
 20
105.560202
 30
0.0
 10
570.883323
 20
106.029252
 30
0.0
 10
570.883323
 20
106.611302
 30
0.0
  0
SPLINE
  5
242
100
AcDbEntity
  8
0
 62
7
100
AcDbSpline
 70
8
 71
3
 72
8
 73
4
 74
0
 40
0
 40
0
 40
0
 40
0
 40
1
 40
1
 40
1
 40
1
 10
570.883323
 20
106.611302
 30
0.0
 10
570.883323
 20
107.193362
 30
0.0
 10
571.355891
 20
107.662402
 30
0.0
 10
571.934421
 20
107.662402
 30
0.0
  0
LWPOLYLINE
  5
243
100
AcDbEntity
  8
0
 62
7
100
AcDbPolyline
 90
1
 70
1
 10
509.869476
 20
107.623602
 30
0.0
  0
SPLINE
  5
244
100
AcDbEntity
  8
0
 62
7
100
AcDbSpline
 70
8
 71
3
 72
8
 73
4
 74
0
 40
0
 40
0
 40
0
 40
0
 40
1
 40
1
 40
1
 40
1
 10
481.108956
 20
107.666402
 30
0.0
 10
481.691016
 20
107.666402
 30
0.0
 10
482.160056
 20
107.197362
 30
0.0
 10
482.160056
 20
106.615302
 30
0.0
  0
SPLINE
  5
245
100
AcDbEntity
  8
0
 62
7
100
AcDbSpline
 70
8
 71
3
 72
8
 73
4
 74
0
 40
0
 40
0
 40
0
 40
0
 40
1
 40
1
 40
1
 40
1
 10
482.160056
 20
106.615302
 30
0.0
 10
482.160056
 20
106.033242
 30
0.0
 10
481.691016
 20
105.564202
 30
0.0
 10
481.108956
 20
105.564202
 30
0.0
  0
SPLINE
  5
246
100
AcDbEntity
  8
0
 62
7
100
AcDbSpline
 70
8
 71
3
 72
8
 73
4
 74
0
 40
0
 40
0
 40
0
 40
0
 40
1
 40
1
 40
1
 40
1
 10
481.108956
 20
105.564202
 30
0.0
 10
480.526896
 20
105.564202
 30
0.0
 10
480.057856
 20
106.033242
 30
0.0
 10
480.057856
 20
106.615302
 30
0.0
  0
SPLINE
  5
247
100
AcDbEntity
  8
0
 62
7
100
AcDbSpline
 70
8
 71
3
 72
8
 73
4
 74
0
 40
0
 40
0
 40
0
 40
0
 40
1
 40
1
 40
1
 40
1
 10
480.057856
 20
106.615302
 30
0.0
 10
480.057856
 20
107.197362
 30
0.0
 10
480.530426
 20
107.666402
 30
0.0
 10
481.108956
 20
107.666402
 30
0.0
  0
LWPOLYLINE
  5
248
100
AcDbEntity
  8
0
 62
7
100
AcDbPolyline
 90
1
 70
1
 10
571.934421
 20
107.662402
 30
0.0
  0
LWPOLYLINE
  5
249
100
AcDbEntity
  8
0
 62
7
100
AcDbPolyline
 90
1
 70
1
 10
481.108956
 20
107.666402
 30
0.0
  0
LWPOLYLINE
  5
24a
100
AcDbEntity
  8
0
 62
7
100
AcDbPolyline
 90
4
 70
1
 10
446.873786
 20
69.631909
 30
0.0
 10
460.659686
 20
72.062429
 30
0.0
 10
458.229166
 20
85.848339
 30
0.0
 10
444.443256
 20
83.417809
 30
0.0
  0
LWPOLYLINE
  5
24b
100
AcDbEntity
  8
0
 62
7
100
AcDbPolyline
 90
4
 70
1
 10
450.175626
 20
50.907349
 30
0.0
 10
463.961536
 20
53.337869
 30
0.0
 10
461.531006
 20
67.123779
 30
0.0
 10
447.745106
 20
64.693249
 30
0.0
  0
LWPOLYLINE
  5
24c
100
AcDbEntity
  8
0
 62
7
100
AcDbPolyline
 90
4
 70
1
 10
453.466886
 20
32.094589
 30
0.0
 10
467.252796
 20
34.525109
 30
0.0
 10
464.822266
 20
48.311029
 30
0.0
 10
451.036366
 20
45.880489
 30
0.0
  0
LWPOLYLINE
  5
24d
100
AcDbEntity
  8
0
 62
7
100
AcDbPolyline
 90
4
 70
1
 10
481.835941
 20
85.738979
 30
0.0
 10
480.858791
 20
99.704799
 30
0.0
 10
466.892976
 20
98.727649
 30
0.0
 10
467.870126
 20
84.761829
 30
0.0
  0
LWPOLYLINE
  5
24e
100
AcDbEntity
  8
0
 62
7
100
AcDbPolyline
 90
4
 70
1
 10
469.196506
 20
65.797399
 30
0.0
 10
483.162311
 20
66.774539
 30
0.0
 10
482.185171
 20
80.740359
 30
0.0
 10
468.219356
 20
79.763209
 30
0.0
  0
LWPOLYLINE
  5
24f
100
AcDbEntity
  8
0
 62
7
100
AcDbPolyline
 90
4
 70
1
 10
470.501726
 20
46.744759
 30
0.0
 10
484.467531
 20
47.721899
 30
0.0
 10
483.490381
 20
61.687729
 30
0.0
 10
469.524576
 20
60.710579
 30
0.0
  0
LWPOLYLINE
  5
250
100
AcDbEntity
  8
0
 62
7
100
AcDbPolyline
 90
4
 70
1
 10
489.116921
 20
57.581589
 30
0.0
 10
503.118013
 20
57.581589
 30
0.0
 10
503.118013
 20
71.579149
 30
0.0
 10
489.116921
 20
71.579149
 30
0.0
  0
LWPOLYLINE
  5
251
100
AcDbEntity
  8
0
 62
7
100
AcDbPolyline
 90
4
 70
1
 10
503.142703
 20
90.677639
 30
0.0
 10
489.141611
 20
90.677639
 30
0.0
 10
489.141611
 20
76.676549
 30
0.0
 10
503.142703
 20
76.676549
 30
0.0
  0
LWPOLYLINE
  5
252
100
AcDbEntity
  8
0
 62
7
100
AcDbPolyline
 90
4
 70
1
 10
505.241633
 20
26.584459
 30
0.0
 10
519.239186
 20
26.584459
 30
0.0
 10
519.239186
 20
40.582019
 30
0.0
 10
505.241633
 20
40.582019
 30
0.0
  0
LWPOLYLINE
  5
253
100
AcDbEntity
  8
0
 62
7
100
AcDbPolyline
 90
4
 70
1
 10
522.191796
 20
62.583739
 30
0.0
 10
508.190713
 20
62.583739
 30
0.0
 10
508.190713
 20
48.582649
 30
0.0
 10
522.191796
 20
48.582649
 30
0.0
  0
LWPOLYLINE
  5
254
100
AcDbEntity
  8
0
 62
7
100
AcDbPolyline
 90
4
 70
1
 10
538.302396
 20
22.132609
 30
0.0
 10
541.925256
 20
35.653949
 30
0.0
 10
528.403926
 20
39.276799
 30
0.0
 10
524.781066
 20
25.755469
 30
0.0
  0
LWPOLYLINE
  5
255
100
AcDbEntity
  8
0
 62
7
100
AcDbPolyline
 90
4
 70
1
 10
555.566526
 20
12.939667
 30
0.0
 10
562.565306
 20
25.064059
 30
0.0
 10
550.440906
 20
32.062839
 30
0.0
 10
543.442126
 20
19.938439
 30
0.0
  0
LWPOLYLINE
  5
256
100
AcDbEntity
  8
0
 62
7
100
AcDbPolyline
 90
4
 70
1
 10
566.396296
 20
55.006432
 30
0.0
 10
552.797356
 20
55.006432
 30
0.0
 10
552.797356
 20
41.806099
 30
0.0
 10
566.396296
 20
41.806099
 30
0.0
  0
LWPOLYLINE
  5
257
100
AcDbEntity
  8
0
 62
7
100
AcDbPolyline
 90
4
 70
1
 10
545.523416
 20
82.221949
 30
0.0
 10
545.523416
 20
67.405989
 30
0.0
 10
571.909956
 20
67.405989
 30
0.0
 10
571.909956
 20
82.221949
 30
0.0
  0
LWPOLYLINE
  5
258
100
AcDbEntity
  8
0
 62
7
100
AcDbPolyline
 90
4
 70
1
 10
541.184436
 20
59.532359
 30
0.0
 10
527.186876
 20
59.532359
 30
0.0
 10
527.186876
 20
45.531259
 30
0.0
 10
541.184456
 20
45.531259
 30
0.0
  0
LWPOLYLINE
  5
259
100
AcDbEntity
  8
0
 62
7
100
AcDbPolyline
 90
4
 70
1
 10
541.184436
 20
78.630849
 30
0.0
 10
527.186876
 20
78.630849
 30
0.0
 10
527.186876
 20
64.629759
 30
0.0
 10
541.184456
 20
64.629759
 30
0.0
  0
LWPOLYLINE
  5
25a
100
AcDbEntity
  8
0
 62
7
100
AcDbPolyline
 90
4
 70
1
 10
541.156236
 20
97.729329
 30
0.0
 10
527.158676
 20
97.729329
 30
0.0
 10
527.158676
 20
83.728239
 30
0.0
 10
541.156236
 20
83.728239
 30
0.0
  0
LWPOLYLINE
  5
25b
100
AcDbEntity
  8
0
 62
7
100
AcDbPolyline
 90
4
 70
1
 10
522.163576
 20
81.608149
 30
0.0
 10
508.162493
 20
81.608149
 30
0.0
 10
508.162493
 20
67.607059
 30
0.0
 10
522.163576
 20
67.607059
 30
0.0
  0
LWPOLYLINE
  5
25c
100
AcDbEntity
  8
0
 62
7
100
AcDbPolyline
 90
4
 70
1
 10
522.163576
 20
100.692529
 30
0.0
 10
508.162493
 20
100.692529
 30
0.0
 10
508.162493
 20
86.694969
 30
0.0
 10
522.163576
 20
86.694969
 30
0.0
  0
LWPOLYLINE
  5
25d
100
AcDbEntity
  8
0
 62
7
100
AcDbPolyline
 90
4
 70
1
 10
503.142703
 20
109.691459
 30
0.0
 10
489.141611
 20
109.691459
 30
0.0
 10
489.141611
 20
95.690369
 30
0.0
 10
503.142703
 20
95.690369
 30
0.0
  0
SPLINE
  5
25e
100
AcDbEntity
  8
0
 62
7
100
AcDbSpline
 70
8
 71
3
 72
8
 73
4
 74
0
 40
0
 40
0
 40
0
 40
0
 40
1
 40
1
 40
1
 40
1
 10
442.623016
 20
108.509709
 30
0.0
 10
442.623016
 20
108.897749
 30
0.0
 10
442.936976
 20
109.208179
 30
0.0
 10
443.321476
 20
109.208179
 30
0.0
  0
LWPOLYLINE
  5
25f
100
AcDbEntity
  8
0
 62
7
100
AcDbPolyline
 90
3
 70
0
 10
441.116726
 20
86.423339
 30
0.0
 10
442.623016
 20
86.687909
 30
0.0
 10
442.623016
 20
108.509709
 30
0.0
  0
SPLINE
  5
260
100
AcDbEntity
  8
0
 62
7
100
AcDbSpline
 70
8
 71
3
 72
8
 73
4
 74
0
 40
0
 40
0
 40
0
 40
0
 40
1
 40
1
 40
1
 40
1
 10
485.624581
 20
112.457110
 30
0.0
 10
485.624581
 20
112.845150
 30
0.0
 10
485.938541
 20
113.155580
 30
0.0
 10
486.323051
 20
113.155580
 30
0.0
  0
LWPOLYLINE
  5
261
100
AcDbEntity
  8
0
 62
7
100
AcDbPolyline
 90
3
 70
0
 10
443.321476
 20
109.208179
 30
0.0
 10
485.624581
 20
109.208179
 30
0.0
 10
485.624581
 20
112.457110
 30
0.0
  0
SPLINE
  5
262
100
AcDbEntity
  8
0
 62
7
100
AcDbSpline
 70
8
 71
3
 72
8
 73
4
 74
0
 40
0
 40
0
 40
0
 40
0
 40
1
 40
1
 40
1
 40
1
 10
505.947153
 20
113.155580
 30
0.0
 10
506.335193
 20
113.155580
 30
0.0
 10
506.645623
 20
112.841620
 30
0.0
 10
506.645623
 20
112.457110
 30
0.0
  0
LWPOLYLINE
  5
263
100
AcDbEntity
  8
0
 62
7
100
AcDbPolyline
 90
2
 70
0
 10
486.323051
 20
113.155580
 30
0.0
 10
505.947153
 20
113.155580
 30
0.0
  0
SPLINE
  5
264
100
AcDbEntity
  8
0
 62
7
100
AcDbSpline
 70
8
 71
3
 72
8
 73
4
 74
0
 40
0
 40
0
 40
0
 40
0
 40
1
 40
1
 40
1
 40
1
 10
573.853665
 20
109.208179
 30
0.0
 10
574.241705
 20
109.208179
 30
0.0
 10
574.552135
 20
108.894219
 30
0.0
 10
574.552135
 20
108.509709
 30
0.0
  0
LWPOLYLINE
  5
265
100
AcDbEntity
  8
0
 62
7
100
AcDbPolyline
 90
3
 70
0
 10
506.645623
 20
112.457110
 30
0.0
 10
506.645623
 20
109.208179
 30
0.0
 10
573.853665
 20
109.208179
 30
0.0
  0
SPLINE
  5
266
100
AcDbEntity
  8
0
 62
7
100
AcDbSpline
 70
8
 71
3
 72
8
 73
4
 74
0
 40
0
 40
0
 40
0
 40
0
 40
1
 40
1
 40
1
 40
1
 10
574.552112
 20
13.077217
 30
0.0
 10
574.552157
 20
12.689177
 30
0.0
 10
574.238152
 20
12.378747
 30
0.0
 10
573.853642
 20
12.378747
 30
0.0
  0
LWPOLYLINE
  5
267
100
AcDbEntity
  8
0
 62
7
100
AcDbPolyline
 90
6
 70
0
 10
574.552135
 20
108.509709
 30
0.0
 10
574.551468
 20
38.714939
 30
0.0
 10
561.568873
 20
38.715939
 30
0.0
 10
561.568614
 20
29.569439
 30
0.0
 10
574.550212
 20
29.558939
 30
0.0
 10
574.552112
 20
13.077217
 30
0.0
  0
SPLINE
  5
268
100
AcDbEntity
  8
0
 62
7
100
AcDbSpline
 70
8
 71
3
 72
8
 73
4
 74
0
 40
0
 40
0
 40
0
 40
0
 40
1
 40
1
 40
1
 40
1
 10
557.168043
 20
8.713557
 30
0.0
 10
556.974023
 20
8.378437
 30
0.0
 10
556.543653
 20
8.262027
 30
0.0
 10
556.208533
 20
8.459577
 30
0.0
  0
LWPOLYLINE
  5
269
100
AcDbEntity
  8
0
 62
7
100
AcDbPolyline
 90
3
 70
0
 10
573.853642
 20
12.378747
 30
0.0
 10
559.281083
 20
12.378747
 30
0.0
 10
557.168043
 20
8.713557
 30
0.0
  0
SPLINE
  5
26a
100
AcDbEntity
  8
0
 62
7
100
AcDbSpline
 70
8
 71
3
 72
8
 73
4
 74
0
 40
0
 40
0
 40
0
 40
0
 40
1
 40
1
 40
1
 40
1
 10
549.992883
 20
12.071847
 30
0.0
 10
549.992883
 20
12.071847
 30
0.0
 10
548.493643
 20
13.006667
 30
0.0
 10
547.742263
 20
13.440557
 30
0.0
  0
SPLINE
  5
26b
100
AcDbEntity
  8
0
 62
7
100
AcDbSpline
 70
8
 71
3
 72
8
 73
4
 74
0
 40
0
 40
0
 40
0
 40
0
 40
1
 40
1
 40
1
 40
1
 10
547.742263
 20
13.440557
 30
0.0
 10
542.203913
 20
16.640087
 30
0.0
 10
536.256363
 20
19.130589
 30
0.0
 10
530.605133
 20
20.643929
 30
0.0
  0
SPLINE
  5
26c
100
AcDbEntity
  8
0
 62
7
100
AcDbSpline
 70
8
 71
3
 72
8
 73
4
 74
0
 40
0
 40
0
 40
0
 40
0
 40
1
 40
1
 40
1
 40
1
 10
530.605133
 20
20.643929
 30
0.0
 10
524.445923
 20
22.294849
 30
0.0
 10
518.099743
 20
23.155589
 30
0.0
 10
512.219213
 20
23.176759
 30
0.0
  0
LWPOLYLINE
  5
26d
100
AcDbEntity
  8
0
 62
7
100
AcDbPolyline
 90
2
 70
0
 10
556.208533
 20
8.459577
 30
0.0
 10
549.992883
 20
12.071847
 30
0.0
  0
SPLINE
  5
26e
100
AcDbEntity
  8
0
 62
7
100
AcDbSpline
 70
8
 71
3
 72
8
 73
4
 74
0
 40
0
 40
0
 40
0
 40
0
 40
1
 40
1
 40
1
 40
1
 10
502.408943
 20
23.176759
 30
0.0
 10
502.020903
 20
23.176759
 30
0.0
 10
501.710473
 20
23.490709
 30
0.0
 10
501.710473
 20
23.875219
 30
0.0
  0
LWPOLYLINE
  5
26f
100
AcDbEntity
  8
0
 62
7
100
AcDbPolyline
 90
2
 70
0
 10
512.219213
 20
23.176759
 30
0.0
 10
502.408943
 20
23.176759
 30
0.0
  0
SPLINE
  5
270
100
AcDbEntity
  8
0
 62
7
100
AcDbSpline
 70
8
 71
3
 72
8
 73
4
 74
0
 40
0
 40
0
 40
0
 40
0
 40
1
 40
1
 40
1
 40
1
 10
471.242506
 20
32.443819
 30
0.0
 10
471.309506
 20
32.062839
 30
0.0
 10
471.055536
 20
31.699499
 30
0.0
 10
470.674556
 20
31.632469
 30
0.0
  0
LWPOLYLINE
  5
271
100
AcDbEntity
  8
0
 62
7
100
AcDbPolyline
 90
5
 70
0
 10
501.710473
 20
23.875219
 30
0.0
 10
501.710473
 20
36.930939
 30
0.0
 10
485.730391
 20
36.930939
 30
0.0
 10
470.639276
 20
35.872659
 30
0.0
 10
471.242506
 20
32.443819
 30
0.0
  0
SPLINE
  5
272
100
AcDbEntity
  8
0
 62
7
100
AcDbSpline
 70
8
 71
3
 72
8
 73
4
 74
0
 40
0
 40
0
 40
0
 40
0
 40
1
 40
1
 40
1
 40
1
 10
451.406756
 20
28.235379
 30
0.0
 10
451.025776
 20
28.168379
 30
0.0
 10
450.662426
 20
28.422349
 30
0.0
 10
450.595396
 20
28.803329
 30
0.0
  0
LWPOLYLINE
  5
273
100
AcDbEntity
  8
0
 62
7
100
AcDbPolyline
 90
2
 70
0
 10
470.674556
 20
31.632469
 30
0.0
 10
451.406756
 20
28.235379
 30
0.0
  0
SPLINE
  5
274
100
AcDbEntity
  8
0
 62
7
100
AcDbSpline
 70
8
 71
3
 72
8
 73
4
 74
0
 40
0
 40
0
 40
0
 40
0
 40
1
 40
1
 40
1
 40
1
 10
443.321466
 20
33.791369
 30
0.0
 10
442.933426
 20
33.791369
 30
0.0
 10
442.622996
 20
34.105329
 30
0.0
 10
442.622996
 20
34.489839
 30
0.0
  0
LWPOLYLINE
  5
275
100
AcDbEntity
  8
0
 62
7
100
AcDbPolyline
 90
3
 70
0
 10
450.595396
 20
28.803329
 30
0.0
 10
449.717026
 20
33.791369
 30
0.0
 10
443.321466
 20
33.791369
 30
0.0
  0
SPLINE
  5
276
100
AcDbEntity
  8
0
 62
7
100
AcDbSpline
 70
8
 71
3
 72
8
 73
4
 74
0
 40
0
 40
0
 40
0
 40
0
 40
1
 40
1
 40
1
 40
1
 10
440.548766
 20
85.611989
 30
0.0
 10
440.481766
 20
85.992969
 30
0.0
 10
440.735726
 20
86.356309
 30
0.0
 10
441.116706
 20
86.423339
 30
0.0
  0
LWPOLYLINE
  5
277
100
AcDbEntity
  8
0
 62
7
100
AcDbPolyline
 90
3
 70
0
 10
442.622996
 20
34.489839
 30
0.0
 10
442.622996
 20
73.843879
 30
0.0
 10
440.548766
 20
85.611989
 30
0.0
  0
LWPOLYLINE
  5
278
100
AcDbEntity
  8
0
 62
7
100
AcDbPolyline
 90
1
 70
1
 10
441.116706
 20
86.423339
 30
0.0
  0
LWPOLYLINE
  5
279
100
AcDbEntity
  8
0
 62
7
100
AcDbPolyline
 90
4
 70
1
 10
500.125172
 20
51.075053
 30
0.0
 10
490.125172
 20
51.075053
 30
0.0
 10
490.125172
 20
41.075053
 30
0.0
 10
500.125172
 20
41.075053
 30
0.0
  0
ENDSEC
  0
SECTION
  2
OBJECTS
  0
DICTIONARY
  5
C
330
0
100
AcDbDictionary
  3
ACAD_GROUP
350
D
  3
ACAD_MLINESTYLE
350
17
  0
DICTIONARY
  5
D
330
C
100
AcDbDictionary
  0
DICTIONARY
  5
1A
330
C
100
AcDbDictionary
  0
DICTIONARY
  5
17
330
C
100
AcDbDictionary
  3
STANDARD
350
18
  0
DICTIONARY
  5
19
330
C
100
AcDbDictionary
  0
ENDSEC
  0
EOF
